<svg width="120" height="120" viewBox="0 0 120 120" fill="none" xmlns="http://www.w3.org/2000/svg">
<path opacity="0.7" d="M0 60C0 93.1371 26.8629 120 60 120C93.1371 120 120 93.1371 120 60C120 26.8629 93.1371 0 60 0C26.8629 0 0 26.8629 0 60Z" fill="url(#paint0_linear)"/>
<path d="M73.0214 48.5156L63.26 60.5692L63.1281 60.8103L62.0069 62.1964L62.4026 70.6942L68.4045 75.6362L69.0641 84.375L52.8392 84.0737L49.6074 83.2299L48.75 78.8304L50.3329 74.1295L56.9943 72.2612L57.3241 55.4464L61.4793 43.4531L70.0534 33.75L75 32.8125L73.0214 48.5156Z" fill="#CDA677"/>
<path d="M71.3393 56.1221C76.1849 54.5281 85.0611 48.1407 85.0611 39.642C85.0611 35.482 81.505 32.1085 77.2982 32.4457C77.3083 32.1612 77.3233 31.879 77.3276 31.5938C77.3276 31.1719 77.1682 30.7687 76.8683 30.4688C76.5683 30.1593 76.1651 30 75.7433 30H44.9463C44.5245 30 44.1213 30.1593 43.8214 30.4688C43.5214 30.7687 43.3621 31.1719 43.3621 31.5938C43.3662 31.875 43.3731 32.158 43.3817 32.4458C39.1762 32.114 35.625 35.4839 35.625 39.642C35.625 48.1427 44.5054 54.5312 49.3503 56.1231C51.1707 59.1335 53.2486 61.3108 55.5214 62.5875C55.3432 63.2625 55.3152 63.8719 55.3152 63.8812C55.3152 63.9094 55.4183 65.5313 56.1589 66.3376V68.672C54.0378 69.2565 52.6225 70.2462 52.1333 71.447H49.3151C48.7902 71.447 48.3776 71.8688 48.3776 72.3844V85.5939H47.6932C47.1683 85.5939 46.7558 86.0156 46.7558 86.5313V89.0625C46.7558 89.5783 47.1683 90 47.6932 90H72.9964C73.512 90 73.9339 89.5783 73.9339 89.0625V86.5313C73.9339 86.0156 73.512 85.5939 72.9964 85.5939H72.3121V72.3844C72.3121 71.8687 71.8903 71.447 71.3747 71.447H68.5481C68.0614 70.2462 66.6519 69.2565 64.5308 68.672V66.3563C65.2621 65.5594 65.3745 63.9094 65.3745 63.8812C65.3745 63.8719 65.3371 63.2625 65.1684 62.5969C67.4413 61.3109 69.5108 59.1328 71.3393 56.1221ZM37.4999 39.642C37.4999 36.6894 39.9022 34.2871 42.8548 34.2871C43.0554 34.2871 43.2606 34.3011 43.4683 34.3267C43.4861 34.65 43.5 34.9735 43.5212 35.2967C43.9752 42.1542 45.5045 48.4295 47.912 53.4629C43.6681 51.2831 37.4999 46.1795 37.4999 39.642ZM77.1682 35.2967C77.189 34.9795 77.2089 34.6579 77.2265 34.326C77.4312 34.3011 77.6335 34.287 77.8312 34.287C80.7838 34.287 83.1861 36.6893 83.1861 39.6418C83.1861 46.1771 77.0223 51.2795 72.7783 53.4608C75.185 48.428 76.705 42.1534 77.1682 35.2967ZM67.624 76.1377V82.7835H53.062V76.1377H67.624ZM64.4132 57.7804L63.3256 56.2532C64.5692 55.367 65.8136 53.9022 66.9241 52.0162C67.2472 51.467 67.553 50.8956 67.8327 50.3206C69.8422 46.1869 71.1642 40.7121 71.5557 34.9032C71.5735 34.6276 71.5904 34.3502 71.606 34.0572L73.4783 34.1542C73.4627 34.4563 73.4448 34.741 73.4265 35.0267C73.0191 41.0729 71.6315 46.7949 69.5189 51.14C69.2182 51.759 68.8886 52.3742 68.5403 52.9675C67.2968 55.0787 65.8699 56.7431 64.4132 57.7804Z" fill="#42210B"/>
<g filter="url(#filter0_d)">
<path d="M73.4047 91.875C81.5345 91.875 88.1249 85.2846 88.1249 77.1549C88.1249 69.0251 81.5345 62.4347 73.4047 62.4347C65.275 62.4347 58.6846 69.0251 58.6846 77.1549C58.6846 85.2846 65.275 91.875 73.4047 91.875Z" fill="#8C6F53"/>
<path d="M72.8452 91.3153C80.9749 91.3153 87.5653 84.7249 87.5653 76.5952C87.5653 68.4654 80.9749 61.875 72.8452 61.875C64.7154 61.875 58.125 68.4654 58.125 76.5952C58.125 84.7249 64.7154 91.3153 72.8452 91.3153Z" fill="#CDA677"/>
<path d="M72.8449 88.6742C79.5158 88.6742 84.9236 83.2664 84.9236 76.5955C84.9236 69.9246 79.5158 64.5167 72.8449 64.5167C66.174 64.5167 60.7661 69.9246 60.7661 76.5955C60.7661 83.2664 66.174 88.6742 72.8449 88.6742Z" fill="#8C6F53"/>
<path d="M72.8454 88.1582C79.2314 88.1582 84.4082 82.9814 84.4082 76.5954C84.4082 70.2095 79.2314 65.0327 72.8454 65.0327C66.4595 65.0327 61.2827 70.2095 61.2827 76.5954C61.2827 82.9814 66.4595 88.1582 72.8454 88.1582Z" fill="#CDA677"/>
<path d="M68.1392 71.8894V71.8369C68.4143 71.4906 68.66 71.122 68.8739 70.7349C68.9082 70.6687 68.9615 70.6143 69.0269 70.5784C69.0923 70.5426 69.1669 70.5271 69.2412 70.5337H77.8302C77.9001 70.5337 77.9788 70.5337 78.0576 70.5862C77.8214 70.9448 77.5765 71.3034 77.3578 71.6708C77.3218 71.747 77.2627 71.8099 77.1889 71.8507C77.1152 71.8915 77.0305 71.9081 76.9468 71.8982H75.0226C74.9613 71.8982 74.8826 71.8544 74.8301 71.9506C75.1284 72.3267 75.327 72.7719 75.4074 73.2451C75.4074 73.3851 75.5211 73.3851 75.6261 73.3851H78.0838L77.2616 74.6533C77.2004 74.7495 77.113 74.7407 77.0167 74.7407H75.801C75.5911 74.7407 75.5036 74.7407 75.4599 75.0119C75.321 75.763 74.9401 76.448 74.3753 76.9623C73.4638 77.7915 72.2986 78.2878 71.0692 78.3705C70.9992 78.3705 70.9118 78.3705 70.868 78.3705C70.8243 78.3705 70.9205 78.5017 70.9555 78.5542C71.9118 79.7204 72.8593 80.904 73.7981 82.1052L76.282 85.2189H73.8331C73.8331 85.0965 73.7368 85.0352 73.6669 84.9565C72.0984 82.974 70.524 80.9915 68.9438 79.009C68.8213 78.8792 68.7282 78.7245 68.6708 78.5554C68.6134 78.3864 68.5932 78.207 68.6115 78.0294C68.6115 77.7932 68.5065 77.4871 68.6727 77.3297C68.8389 77.1722 69.1275 77.3297 69.3549 77.3297C70.1243 77.3842 70.8973 77.3012 71.6377 77.0848C72.1008 76.9531 72.5187 76.6967 72.8458 76.3434C73.1728 75.9901 73.3964 75.5537 73.4919 75.0819C73.5619 74.7233 73.5444 74.7145 73.1858 74.7145H68.489C68.384 74.7343 68.2753 74.7156 68.1829 74.662C68.4015 74.3297 68.629 74.006 68.8214 73.6649C68.8736 73.5576 68.9583 73.4694 69.0635 73.4128C69.1687 73.3563 69.289 73.3344 69.4074 73.3501C70.6406 73.3501 71.8651 73.3501 73.0984 73.3501C73.3083 73.3501 73.3345 73.2976 73.2296 73.1227C73.0895 72.9193 72.9183 72.7393 72.7223 72.5891C72.1729 72.2028 71.5219 71.9869 70.8505 71.9681C69.9497 71.8632 69.04 71.9157 68.1392 71.8894Z" fill="#603813"/>
</g>
<g filter="url(#filter1_d)">
<path d="M82.7096 91.8751C88.8069 91.8751 93.7497 86.9322 93.7497 80.8349C93.7497 74.7376 88.8069 69.7948 82.7096 69.7948C76.6123 69.7948 71.6694 74.7376 71.6694 80.8349C71.6694 86.9322 76.6123 91.8751 82.7096 91.8751Z" fill="#8C6F53"/>
<path d="M82.2901 91.4553C88.3874 91.4553 93.3303 86.5124 93.3303 80.4151C93.3303 74.3178 88.3874 69.375 82.2901 69.375C76.1928 69.375 71.25 74.3178 71.25 80.4151C71.25 86.5124 76.1928 91.4553 82.2901 91.4553Z" fill="#CDA677"/>
<path d="M82.29 89.4741C87.2932 89.4741 91.3491 85.4182 91.3491 80.415C91.3491 75.4118 87.2932 71.356 82.29 71.356C77.2868 71.356 73.231 75.4118 73.231 80.415C73.231 85.4182 77.2868 89.4741 82.29 89.4741Z" fill="#8C6F53"/>
<path d="M82.2902 89.0871C87.0796 89.0871 90.9622 85.2045 90.9622 80.4151C90.9622 75.6256 87.0796 71.743 82.2902 71.743C77.5008 71.743 73.6182 75.6256 73.6182 80.4151C73.6182 85.2045 77.5008 89.0871 82.2902 89.0871Z" fill="#CDA677"/>
<path d="M78.7603 76.8858V76.8465C78.9666 76.5867 79.1509 76.3103 79.3113 76.0199C79.3371 75.9703 79.377 75.9295 79.4261 75.9026C79.4751 75.8757 79.5311 75.864 79.5868 75.869H86.0285C86.081 75.869 86.14 75.869 86.1991 75.9084C86.0219 76.1774 85.8383 76.4463 85.6743 76.7218C85.6472 76.779 85.6029 76.8262 85.5476 76.8568C85.4923 76.8874 85.4287 76.8998 85.366 76.8924H83.9228C83.8769 76.8924 83.8179 76.8596 83.7785 76.9317C84.0022 77.2138 84.1511 77.5477 84.2114 77.9026C84.2114 78.0075 84.2967 78.0075 84.3754 78.0075H86.2187L85.6021 78.9587C85.5562 79.0309 85.4906 79.0243 85.4184 79.0243H84.5066C84.3492 79.0243 84.2836 79.0243 84.2508 79.2277C84.1466 79.791 83.8609 80.3048 83.4374 80.6905C82.7538 81.3124 81.8798 81.6846 80.9578 81.7466C80.9053 81.7466 80.8397 81.7466 80.8069 81.7466C80.7741 81.7466 80.8463 81.845 80.8725 81.8844C81.5897 82.759 82.3004 83.6468 83.0044 84.5477L84.8674 86.8829H83.0307C83.0307 86.7911 82.9585 86.7452 82.906 86.6861C81.7297 85.1993 80.5489 83.7124 79.3638 82.2255C79.2718 82.1281 79.202 82.0121 79.159 81.8853C79.116 81.7585 79.1008 81.624 79.1145 81.4908C79.1145 81.3137 79.0358 81.0841 79.1604 80.966C79.285 80.8479 79.5015 80.966 79.6721 80.966C80.2491 81.0069 80.8289 80.9447 81.3842 80.7823C81.7315 80.6836 82.0449 80.4912 82.2902 80.2263C82.5355 79.9613 82.7032 79.634 82.7748 79.2801C82.8273 79.0112 82.8142 79.0046 82.5453 79.0046H79.0226C78.9439 79.0194 78.8624 79.0055 78.793 78.9653C78.957 78.716 79.1276 78.4733 79.2719 78.2175C79.3111 78.1369 79.3746 78.0708 79.4535 78.0284C79.5324 77.986 79.6226 77.9695 79.7114 77.9813C80.6364 77.9813 81.5547 77.9813 82.4797 77.9813C82.6371 77.9813 82.6568 77.9419 82.5781 77.8107C82.473 77.6582 82.3446 77.5232 82.1976 77.4106C81.7855 77.1209 81.2973 76.9589 80.7938 76.9449C80.1181 76.8661 79.4359 76.9055 78.7603 76.8858Z" fill="#603813"/>
</g>
<defs>
<filter id="filter0_d" x="54.125" y="59.875" width="33.9999" height="34" filterUnits="userSpaceOnUse" color-interpolation-filters="sRGB">
<feFlood flood-opacity="0" result="BackgroundImageFix"/>
<feColorMatrix in="SourceAlpha" type="matrix" values="0 0 0 0 0 0 0 0 0 0 0 0 0 0 0 0 0 0 127 0"/>
<feOffset dx="-2"/>
<feGaussianBlur stdDeviation="1"/>
<feColorMatrix type="matrix" values="0 0 0 0 0.258824 0 0 0 0 0.129412 0 0 0 0 0.0431373 0 0 0 0.4 0"/>
<feBlend mode="normal" in2="BackgroundImageFix" result="effect1_dropShadow"/>
<feBlend mode="normal" in="SourceGraphic" in2="effect1_dropShadow" result="shape"/>
</filter>
<filter id="filter1_d" x="67.25" y="67.375" width="26.4997" height="26.5001" filterUnits="userSpaceOnUse" color-interpolation-filters="sRGB">
<feFlood flood-opacity="0" result="BackgroundImageFix"/>
<feColorMatrix in="SourceAlpha" type="matrix" values="0 0 0 0 0 0 0 0 0 0 0 0 0 0 0 0 0 0 127 0"/>
<feOffset dx="-2"/>
<feGaussianBlur stdDeviation="1"/>
<feColorMatrix type="matrix" values="0 0 0 0 0.258824 0 0 0 0 0.129412 0 0 0 0 0.0431373 0 0 0 0.4 0"/>
<feBlend mode="normal" in2="BackgroundImageFix" result="effect1_dropShadow"/>
<feBlend mode="normal" in="SourceGraphic" in2="effect1_dropShadow" result="shape"/>
</filter>
<linearGradient id="paint0_linear" x1="59.1857" y1="127.183" x2="60.8829" y2="-12.6857" gradientUnits="userSpaceOnUse">
<stop stop-color="#CDA677"/>
<stop offset="0.25" stop-color="#CFA97C"/>
<stop offset="1" stop-color="#F0E5D7"/>
</linearGradient>
</defs>
</svg>
