<svg width="120" height="120" viewBox="0 0 120 120" fill="none" xmlns="http://www.w3.org/2000/svg">
<path opacity="0.7" d="M0 60C0 93.1371 26.8629 120 60 120C93.1371 120 120 93.1371 120 60C120 26.8629 93.1371 0 60 0C26.8629 0 0 26.8629 0 60Z" fill="url(#paint0_linear)"/>
<path d="M0 108C0 101.373 5.37258 96 12 96H108C114.627 96 120 101.373 120 108C120 114.627 114.627 120 108 120H12C5.37259 120 0 114.627 0 108Z" fill="url(#paint1_linear)"/>
<path d="M35.356 112V105.496H37.684V103.996H31.3V105.496H33.64V112H35.356ZM39.4964 105.58C40.0004 105.58 40.4084 105.172 40.4084 104.668C40.4084 104.164 40.0004 103.768 39.4964 103.768C39.0044 103.768 38.5844 104.164 38.5844 104.668C38.5844 105.172 39.0044 105.58 39.4964 105.58ZM40.2644 112V106.204H38.7404V112H40.2644ZM50.4995 112V107.812C50.4995 106.624 49.8635 106.06 48.7955 106.06C47.9075 106.06 47.1395 106.588 46.8035 107.116C46.5875 106.456 46.0475 106.06 45.1955 106.06C44.3075 106.06 43.5395 106.612 43.2995 106.96V106.204H41.7755V112H43.2995V108.1C43.5275 107.776 43.9715 107.416 44.4995 107.416C45.1235 107.416 45.3635 107.8 45.3635 108.34V112H46.8995V108.088C47.1155 107.776 47.5595 107.416 48.0995 107.416C48.7235 107.416 48.9635 107.8 48.9635 108.34V112H50.4995ZM54.7183 112.144C55.6183 112.144 56.5303 111.868 57.1063 111.34L56.4343 110.356C56.0623 110.716 55.3783 110.932 54.8863 110.932C53.9023 110.932 53.3143 110.32 53.2183 109.588H57.5263V109.252C57.5263 107.356 56.3503 106.06 54.6223 106.06C52.8583 106.06 51.6223 107.416 51.6223 109.096C51.6223 110.956 52.9543 112.144 54.7183 112.144ZM56.0503 108.556H53.1943C53.2663 107.98 53.6743 107.272 54.6223 107.272C55.6303 107.272 56.0143 108.004 56.0503 108.556ZM62.4534 105.58C62.9574 105.58 63.3654 105.172 63.3654 104.668C63.3654 104.164 62.9574 103.768 62.4534 103.768C61.9614 103.768 61.5414 104.164 61.5414 104.668C61.5414 105.172 61.9614 105.58 62.4534 105.58ZM63.2214 112V106.204H61.6974V112H63.2214ZM70.1686 112V107.908C70.1686 106.78 69.5566 106.06 68.2846 106.06C67.3366 106.06 66.6286 106.516 66.2566 106.96V106.204H64.7326V112H66.2566V108.1C66.5086 107.752 66.9766 107.416 67.5766 107.416C68.2246 107.416 68.6446 107.692 68.6446 108.496V112H70.1686ZM76.2761 112V108.172C76.5281 107.8 77.2001 107.512 77.7041 107.512C77.8721 107.512 78.0161 107.524 78.1241 107.548V106.06C77.4041 106.06 76.6841 106.48 76.2761 106.996V106.204H74.7521V112H76.2761ZM84.5123 112V106.204H82.9883V110.128C82.7243 110.464 82.2563 110.788 81.6683 110.788C81.0203 110.788 80.6003 110.524 80.6003 109.72V106.204H79.0763V110.32C79.0763 111.448 79.6763 112.144 80.9483 112.144C81.8963 112.144 82.5923 111.712 82.9883 111.268V112H84.5123ZM94.7495 112V107.812C94.7495 106.624 94.1135 106.06 93.0455 106.06C92.1575 106.06 91.3895 106.588 91.0535 107.116C90.8375 106.456 90.2975 106.06 89.4455 106.06C88.5575 106.06 87.7895 106.612 87.5495 106.96V106.204H86.0255V112H87.5495V108.1C87.7775 107.776 88.2215 107.416 88.7495 107.416C89.3735 107.416 89.6135 107.8 89.6135 108.34V112H91.1495V108.088C91.3655 107.776 91.8095 107.416 92.3495 107.416C92.9735 107.416 93.2135 107.8 93.2135 108.34V112H94.7495ZM104.968 112V107.812C104.968 106.624 104.332 106.06 103.264 106.06C102.376 106.06 101.608 106.588 101.272 107.116C101.056 106.456 100.516 106.06 99.6643 106.06C98.7763 106.06 98.0083 106.612 97.7683 106.96V106.204H96.2443V112H97.7683V108.1C97.9963 107.776 98.4403 107.416 98.9683 107.416C99.5923 107.416 99.8323 107.8 99.8323 108.34V112H101.368V108.088C101.584 107.776 102.028 107.416 102.568 107.416C103.192 107.416 103.432 107.8 103.432 108.34V112H104.968ZM106.259 114.268C106.451 114.316 106.835 114.352 107.015 114.352C108.011 114.328 108.779 114.04 109.211 112.948L111.935 106.204H110.291L108.779 110.236L107.267 106.204H105.635L107.987 112.084L107.771 112.576C107.627 112.888 107.363 112.996 106.967 112.996C106.823 112.996 106.619 112.96 106.487 112.9L106.259 114.268Z" fill="white"/>
<path d="M11.8892 114.714H8.98877L10.6235 105.31L7.64404 106.154L8.04834 103.807L13.7085 101.917L14.0337 101.909L11.8892 114.714Z" fill="#FDB62F"/>
<path d="M17.915 107.486C17.9574 107.271 17.7913 107.11 17.417 107.003L17.0703 106.915C16.5039 106.765 16.0889 106.555 15.8252 106.285C15.5615 106.015 15.4378 105.694 15.4541 105.323C15.4704 104.815 15.695 104.404 16.1279 104.088C16.5641 103.769 17.0947 103.613 17.7197 103.619C18.3415 103.626 18.8444 103.784 19.2285 104.093C19.6159 104.402 19.8128 104.819 19.8193 105.343L18.2178 105.338C18.2308 104.921 18.0469 104.713 17.666 104.713C17.5033 104.713 17.3519 104.762 17.2119 104.859C17.0719 104.954 16.9889 105.081 16.9629 105.24C16.9076 105.504 17.1403 105.685 17.6611 105.782C18.1136 105.89 18.4635 106.015 18.7109 106.158C18.9583 106.298 19.1471 106.472 19.2773 106.681C19.4076 106.889 19.4678 107.14 19.458 107.433C19.4482 107.752 19.3441 108.036 19.1455 108.287C18.9469 108.538 18.6589 108.738 18.2812 108.888C17.9069 109.037 17.5 109.107 17.0605 109.098C16.6797 109.094 16.3249 109.015 15.9961 108.858C15.6706 108.702 15.415 108.491 15.2295 108.224C15.0472 107.953 14.9528 107.644 14.9463 107.296L16.4404 107.306C16.4469 107.774 16.6813 108.006 17.1436 107.999C17.3421 107.999 17.5114 107.955 17.6514 107.867C17.7913 107.776 17.8792 107.649 17.915 107.486ZM22.9688 102.403L22.7393 103.717H23.584L23.3838 104.859H22.5391L22.1289 107.286C22.1061 107.452 22.1159 107.577 22.1582 107.662C22.2038 107.747 22.3145 107.792 22.4902 107.799C22.5586 107.802 22.6986 107.794 22.9102 107.774L22.793 108.966C22.5228 109.054 22.2347 109.094 21.9287 109.088C21.4307 109.081 21.0579 108.935 20.8105 108.648C20.5632 108.362 20.4622 107.973 20.5078 107.481L20.9375 104.859H20.2832L20.4785 103.717H21.1328L21.3623 102.403H22.9688Z" fill="#FDB62F"/>
<rect opacity="0.5" x="26.667" y="101.143" width="0.833333" height="13.7143" rx="0.416667" fill="#F35063"/>
<path d="M73.0214 48.5156L63.26 60.5692L63.1281 60.8103L62.0069 62.1964L62.4026 70.6942L68.4045 75.6362L69.0641 84.375L52.8392 84.0737L49.6074 83.2299L48.75 78.8304L50.3329 74.1295L56.9943 72.2612L57.3241 55.4464L61.4793 43.4531L70.0534 33.75L75 32.8125L73.0214 48.5156Z" fill="#CDA677"/>
<path d="M71.3393 56.1221C76.1849 54.5281 85.0611 48.1407 85.0611 39.642C85.0611 35.482 81.505 32.1085 77.2982 32.4457C77.3083 32.1612 77.3233 31.879 77.3276 31.5938C77.3276 31.1719 77.1682 30.7687 76.8683 30.4688C76.5683 30.1593 76.1651 30 75.7433 30H44.9463C44.5245 30 44.1213 30.1593 43.8214 30.4688C43.5214 30.7687 43.3621 31.1719 43.3621 31.5938C43.3662 31.875 43.3731 32.158 43.3817 32.4458C39.1762 32.114 35.625 35.4839 35.625 39.642C35.625 48.1427 44.5054 54.5312 49.3503 56.1231C51.1707 59.1335 53.2486 61.3108 55.5214 62.5875C55.3432 63.2625 55.3152 63.8719 55.3152 63.8812C55.3152 63.9094 55.4183 65.5313 56.1589 66.3376V68.672C54.0378 69.2565 52.6225 70.2462 52.1333 71.447H49.3151C48.7902 71.447 48.3776 71.8688 48.3776 72.3844V85.5939H47.6932C47.1683 85.5939 46.7558 86.0156 46.7558 86.5313V89.0625C46.7558 89.5783 47.1683 90 47.6932 90H72.9964C73.512 90 73.9339 89.5783 73.9339 89.0625V86.5313C73.9339 86.0156 73.512 85.5939 72.9964 85.5939H72.3121V72.3844C72.3121 71.8687 71.8903 71.447 71.3747 71.447H68.5481C68.0614 70.2462 66.6519 69.2565 64.5308 68.672V66.3563C65.2621 65.5594 65.3745 63.9094 65.3745 63.8812C65.3745 63.8719 65.3371 63.2625 65.1684 62.5969C67.4413 61.3109 69.5108 59.1328 71.3393 56.1221ZM37.4999 39.642C37.4999 36.6894 39.9022 34.2871 42.8548 34.2871C43.0554 34.2871 43.2606 34.3011 43.4683 34.3267C43.4861 34.65 43.5 34.9735 43.5212 35.2967C43.9752 42.1542 45.5045 48.4295 47.912 53.4629C43.6681 51.2831 37.4999 46.1795 37.4999 39.642ZM77.1682 35.2967C77.189 34.9795 77.2089 34.6579 77.2265 34.326C77.4312 34.3011 77.6335 34.287 77.8312 34.287C80.7838 34.287 83.1861 36.6893 83.1861 39.6418C83.1861 46.1771 77.0223 51.2795 72.7783 53.4608C75.185 48.428 76.705 42.1534 77.1682 35.2967ZM67.624 76.1377V82.7835H53.062V76.1377H67.624ZM64.4132 57.7804L63.3256 56.2532C64.5692 55.367 65.8136 53.9022 66.9241 52.0162C67.2472 51.467 67.553 50.8956 67.8327 50.3206C69.8422 46.1869 71.1642 40.7121 71.5557 34.9032C71.5735 34.6276 71.5904 34.3502 71.606 34.0572L73.4783 34.1542C73.4627 34.4563 73.4448 34.741 73.4265 35.0267C73.0191 41.0729 71.6315 46.7949 69.5189 51.14C69.2182 51.759 68.8886 52.3742 68.5403 52.9675C67.2968 55.0787 65.8699 56.7431 64.4132 57.7804Z" fill="#42210B"/>
<defs>
<linearGradient id="paint0_linear" x1="59.1857" y1="127.183" x2="60.8829" y2="-12.6857" gradientUnits="userSpaceOnUse">
<stop stop-color="#CDA677"/>
<stop offset="0.25" stop-color="#CFA97C"/>
<stop offset="1" stop-color="#F0E5D7"/>
</linearGradient>
<linearGradient id="paint1_linear" x1="120" y1="108" x2="6.79373" y2="135.733" gradientUnits="userSpaceOnUse">
<stop stop-color="#F75163"/>
<stop offset="1" stop-color="#390346"/>
</linearGradient>
</defs>
</svg>
