<svg width="120" height="120" viewBox="0 0 120 120" fill="none" xmlns="http://www.w3.org/2000/svg">
<path opacity="0.7" d="M0 60C0 93.1371 26.8629 120 60 120C93.1371 120 120 93.1371 120 60C120 26.8629 93.1371 0 60 0C26.8629 0 0 26.8629 0 60Z" fill="url(#paint0_linear)"/>
<g opacity="0.2">
<path d="M47.7477 64.0723L41.6469 71.6057L41.5645 71.7564L40.8637 72.6228L41.111 77.9339L44.8622 81.0226L45.2744 86.4844L35.1339 86.296L33.114 85.7687L32.5781 83.019L33.5674 80.0809L37.7308 78.9132L37.937 68.404L40.5339 60.9082L45.8927 54.8437L48.9844 54.2578L47.7477 64.0723Z" fill="#CDA677"/>
</g>
<path d="M67.3964 48.5156L57.635 60.5692L57.5031 60.8103L56.3819 62.1964L56.7776 70.6942L62.7795 75.6362L63.4391 84.375L47.2142 84.0737L43.9824 83.2299L43.125 78.8304L44.7079 74.1295L51.3693 72.2612L51.6991 55.4464L55.8543 43.4531L64.4284 33.75L69.375 32.8125L67.3964 48.5156Z" fill="#CDA677"/>
<path d="M65.7143 56.1221C70.5599 54.5281 79.4361 48.1407 79.4361 39.642C79.4361 35.482 75.88 32.1085 71.6732 32.4457C71.6833 32.1612 71.6983 31.879 71.7026 31.5938C71.7026 31.1719 71.5432 30.7687 71.2433 30.4688C70.9433 30.1593 70.5401 30 70.1183 30H39.3213C38.8995 30 38.4963 30.1593 38.1964 30.4688C37.8964 30.7687 37.7371 31.1719 37.7371 31.5938C37.7412 31.875 37.7481 32.158 37.7567 32.4458C33.5512 32.114 30 35.4839 30 39.642C30 48.1427 38.8804 54.5312 43.7253 56.1231C45.5457 59.1335 47.6236 61.3108 49.8964 62.5875C49.7182 63.2625 49.6902 63.8719 49.6902 63.8812C49.6902 63.9094 49.7933 65.5313 50.5339 66.3376V68.672C48.4128 69.2565 46.9975 70.2462 46.5083 71.447H43.6901C43.1652 71.447 42.7526 71.8688 42.7526 72.3844V85.5939H42.0682C41.5433 85.5939 41.1308 86.0156 41.1308 86.5313V89.0625C41.1308 89.5783 41.5433 90 42.0682 90H67.3714C67.887 90 68.3089 89.5783 68.3089 89.0625V86.5313C68.3089 86.0156 67.887 85.5939 67.3714 85.5939H66.6871V72.3844C66.6871 71.8687 66.2653 71.447 65.7497 71.447H62.9231C62.4364 70.2462 61.0269 69.2565 58.9058 68.672V66.3563C59.6371 65.5594 59.7495 63.9094 59.7495 63.8812C59.7495 63.8719 59.7121 63.2625 59.5434 62.5969C61.8163 61.3109 63.8858 59.1328 65.7143 56.1221ZM31.8749 39.642C31.8749 36.6894 34.2772 34.2871 37.2298 34.2871C37.4304 34.2871 37.6356 34.3011 37.8433 34.3267C37.8611 34.65 37.875 34.9735 37.8962 35.2967C38.3502 42.1542 39.8795 48.4295 42.287 53.4629C38.0431 51.2831 31.8749 46.1795 31.8749 39.642ZM71.5432 35.2967C71.564 34.9795 71.5839 34.6579 71.6015 34.326C71.8062 34.3011 72.0085 34.287 72.2062 34.287C75.1588 34.287 77.5611 36.6893 77.5611 39.6418C77.5611 46.1771 71.3973 51.2795 67.1533 53.4608C69.56 48.428 71.08 42.1534 71.5432 35.2967ZM61.999 76.1377V82.7835H47.437V76.1377H61.999ZM58.7882 57.7804L57.7006 56.2532C58.9442 55.367 60.1886 53.9022 61.2991 52.0162C61.6222 51.467 61.928 50.8956 62.2077 50.3206C64.2172 46.1869 65.5392 40.7121 65.9307 34.9032C65.9485 34.6276 65.9654 34.3502 65.981 34.0572L67.8533 34.1542C67.8377 34.4563 67.8198 34.741 67.8015 35.0267C67.3941 41.0729 66.0065 46.7949 63.8939 51.14C63.5932 51.759 63.2636 52.3742 62.9153 52.9675C61.6718 55.0787 60.2449 56.7431 58.7882 57.7804Z" fill="#42210B"/>
<path d="M69.9968 47.1774L69.8165 47.3216C69.7663 47.3542 69.7202 47.393 69.6795 47.437C69.6363 47.437 69.6002 47.5163 69.5642 47.5523L69.4561 47.6749C69.3206 47.83 69.2022 47.9992 69.1028 48.1795C69.0595 48.2733 69.0091 48.3526 68.973 48.4463C68.9508 48.4882 68.9315 48.5315 68.9153 48.5761C68.8798 48.6487 68.8485 48.7233 68.8216 48.7996C68.5188 49.6647 68.5188 50.3856 68.1007 50.191C67.5884 49.951 67.0193 49.8589 66.4575 49.9252C65.8958 49.9914 65.3637 50.2133 64.9213 50.5659C63.7822 51.4959 60.2496 51.6833 58.3751 49.881C58.3751 49.881 57.1351 47.6316 60.1558 47.127C61.814 47.127 64.4815 49.744 65.6567 49.7656C66.2158 49.8006 66.7753 49.7048 67.2909 49.4858C67.8065 49.2667 68.2639 48.9306 68.627 48.504C68.9809 47.9668 69.4485 47.5139 69.9968 47.1774Z" fill="#8C6F53"/>
<path d="M79.0662 53.3925H78.9941C78.2731 53.3925 72.0658 53.6376 73.0823 51.2296C73.3648 50.5847 73.4416 49.8683 73.3023 49.1781C73.163 48.4879 72.8143 47.8574 72.3037 47.3726C72.813 47.7721 73.2948 48.2057 73.7456 48.6703C74.4665 49.3912 78.4894 49.0452 79.4411 50.9268C80.3927 52.8085 79.0662 53.3925 79.0662 53.3925Z" fill="#8C6F53"/>
<path d="M86.9247 88.6827C84.0409 90.0309 83.0748 89.6776 81.8781 89.2522C80.6813 88.8269 78.9943 88.9639 75.2598 90.3913C69.2831 93.7293 63.2272 90.4634 61.879 89.9588C60.5308 89.4541 58.9952 90.5283 57.0342 91.17C50.9855 92.0207 51.1225 87.8248 51.8362 85.907C50.9855 84.047 50.625 82.6988 50.625 76.7943C50.6106 67.112 59.0168 61.7698 59.7594 61.193C60.3343 60.6881 60.7982 60.0695 61.122 59.3762C61.4739 58.6772 61.6023 57.8869 61.4897 57.1124C61.4285 56.7714 61.3064 56.4441 61.1292 56.1464C60.0757 54.1208 59.151 52.0307 58.3608 49.8886C59.1608 50.6106 60.177 51.0481 61.2514 51.1328C62.3258 51.2176 63.398 50.9449 64.3014 50.3572C64.7798 49.9952 65.332 49.7429 65.9189 49.6183C66.5057 49.4938 67.1128 49.4999 67.697 49.6362C68.1512 49.7299 68.5045 49.6867 68.8073 48.8216C68.8342 48.7453 68.8654 48.6707 68.901 48.5981C68.9172 48.5535 68.9365 48.5102 68.9587 48.4683C68.9748 48.4214 68.9941 48.3756 69.0164 48.3313C69.0461 48.2915 69.0703 48.2478 69.0885 48.2015C69.1361 48.1143 69.1891 48.03 69.2471 47.9492L69.3408 47.8194L69.4417 47.6969L69.5499 47.5743L69.6652 47.459L69.8022 47.3436L69.9824 47.1994L70.141 47.0624L70.2852 46.9831L70.5448 46.875H70.6818H70.7611H70.8836H71.2225H71.3594C71.7178 46.9603 72.0543 47.12 72.3471 47.3436C72.3631 47.3619 72.3828 47.3767 72.4048 47.3869C72.9266 47.8703 73.2852 48.5039 73.4312 49.2C73.5771 49.8962 73.5031 50.6205 73.2195 51.2728C72.2029 53.6591 78.3815 53.4356 79.1312 53.4356H79.2033C78.6096 54.4622 77.9165 55.4281 77.1342 56.3194C76.8126 56.6957 76.5589 57.125 76.3844 57.5883C76.2483 58.0143 76.1873 58.4607 76.2042 58.9076C76.2201 59.2801 76.2955 59.6476 76.4277 59.9962C76.6926 60.6875 77.1444 61.2915 77.7326 61.7409C88.0277 69.7434 85.9442 81.2065 86.9247 83.9677C87.9052 86.7289 87.9124 87.7527 86.9247 88.6827Z" fill="url(#paint1_linear)"/>
<path d="M71.4677 70.7815H74.128L73.198 72.1729H71.4965C70.9919 75.6479 66.7887 75.7777 66.7887 75.7777V75.893L72.34 82.7204H69.9825L64.5899 76.0805V74.7323C65.734 74.8968 66.9013 74.7627 67.9783 74.343C68.4275 74.1914 68.8158 73.8992 69.0859 73.5097C69.356 73.1201 69.4935 72.6539 69.4779 72.1802H64.0996L65.0441 70.832H69.3697C68.9948 69.5054 67.0843 69.3036 66.832 69.318H64.0996L65.0441 67.8761H74.1784L73.198 69.318H70.7539C71.1275 69.7271 71.3753 70.2352 71.4677 70.7815Z" fill="#CDA677"/>
<path d="M61.875 59.0625C64.6875 60 71.4375 61.3125 75.9375 59.0625" stroke="#603813" stroke-width="0.6"/>
<defs>
<linearGradient id="paint0_linear" x1="59.1857" y1="127.183" x2="60.8829" y2="-12.6857" gradientUnits="userSpaceOnUse">
<stop stop-color="#CDA677"/>
<stop offset="0.25" stop-color="#CFA97C"/>
<stop offset="1" stop-color="#F0E5D7"/>
</linearGradient>
<linearGradient id="paint1_linear" x1="71.7187" y1="91.875" x2="71.7188" y2="46.875" gradientUnits="userSpaceOnUse">
<stop stop-color="#724425"/>
<stop offset="1" stop-color="#CCA677"/>
</linearGradient>
</defs>
</svg>
