<svg width="120" height="120" viewBox="0 0 120 120" fill="none" xmlns="http://www.w3.org/2000/svg">
<path d="M0 60C0 93.1371 26.8629 120 60 120C93.1371 120 120 93.1371 120 60C120 26.8629 93.1371 0 60 0C26.8629 0 0 26.8629 0 60Z" fill="url(#paint0_linear)"/>
<path d="M89.8967 52.5769C88.4477 45.7167 84.6848 39.563 79.2387 35.147C73.7925 30.731 66.994 28.321 59.9824 28.321C52.9709 28.321 46.1724 30.731 40.7262 35.147C35.28 39.563 31.5171 45.7167 30.0681 52.5769C29.6967 52.7649 29.3897 53.0594 29.1866 53.4228C28.9835 53.7863 28.8935 54.202 28.9281 54.6169L29.4681 60.6855L30.2653 69.6083C30.3071 70.0844 30.5113 70.5316 30.8437 70.875C31.1762 71.2183 31.6165 71.4369 32.091 71.4941C34.1054 75.9557 37.1613 79.8686 41.0021 82.9039C44.8428 85.9392 49.356 88.0082 54.1624 88.9369C54.2346 89.6812 54.5807 90.3721 55.1334 90.8757C55.6861 91.3793 56.4061 91.6598 57.1539 91.6626H62.7767C63.5332 91.6054 64.2401 91.2645 64.7559 90.7082C65.2717 90.1519 65.5583 89.4213 65.5583 88.6626C65.5583 87.904 65.2717 87.1734 64.7559 86.6171C64.2401 86.0607 63.5332 85.7199 62.7767 85.6626H57.1881C56.6319 85.6643 56.087 85.8197 55.6135 86.1116C55.1401 86.4035 54.7565 86.8207 54.5053 87.3169C49.9981 86.4462 45.763 84.515 42.15 81.6831C38.5371 78.8512 35.6503 75.1999 33.7281 71.0312C33.9784 70.8141 34.174 70.5411 34.2991 70.2344C34.4242 69.9276 34.4753 69.5957 34.4481 69.2655L33.1024 54.2483C33.0807 53.9764 33.0042 53.7117 32.8775 53.4702C32.7508 53.2286 32.5766 53.0151 32.3653 52.8426C32.1958 52.6995 32.0049 52.5838 31.7996 52.4998C33.2532 46.1074 36.8356 40.3987 41.9593 36.3093C47.083 32.22 53.444 29.9928 59.9996 29.9928C66.5551 29.9928 72.9161 32.22 78.0398 36.3093C83.1635 40.3987 86.7459 46.1074 88.1996 52.4998C87.9943 52.5838 87.8034 52.6995 87.6338 52.8426C87.4225 53.0151 87.2483 53.2286 87.1216 53.4702C86.995 53.7117 86.9184 53.9764 86.8967 54.2483L85.551 69.2398C85.5032 69.7881 85.6734 70.3331 86.0248 70.7567C86.3762 71.1803 86.8804 71.4483 87.4281 71.5026C87.9782 71.5502 88.5247 71.3773 88.9474 71.0221C89.3701 70.6669 89.6345 70.1584 89.6824 69.6083L90.4796 60.6855L91.0196 54.6169C91.0557 54.2039 90.9682 53.7894 90.7683 53.4262C90.5684 53.063 90.265 52.7673 89.8967 52.5769Z" fill="#42210B"/>
<path d="M96.8574 57.6258C95.8557 56.412 94.4608 55.5872 92.9145 55.2944L91.6631 69.2744C93.356 69.2474 94.979 68.595 96.2197 67.443C97.4603 66.2909 98.2309 64.7206 98.3831 63.0344V62.6229C98.4724 61.7305 98.3835 60.8291 98.1216 59.9713C97.8597 59.1134 97.43 58.3162 96.8574 57.6258Z" fill="#42210B"/>
<path d="M23.1432 57.6258C22.563 58.3129 22.1255 59.1086 21.8562 59.9666C21.5869 60.8246 21.4912 61.7276 21.5746 62.6229L21.6175 63.0344C21.7697 64.7206 22.5403 66.2909 23.7809 67.443C25.0216 68.595 26.6446 69.2474 28.3375 69.2744L27.1118 55.2944C25.5562 55.5815 24.1513 56.4069 23.1432 57.6258Z" fill="#42210B"/>
<path d="M84.2572 58.9112C84.2509 53.6599 82.5375 48.5529 79.3755 44.3603C76.2135 40.1676 71.7742 37.1165 66.7269 35.667C61.6795 34.2174 56.2978 34.448 51.3929 36.3239C46.4881 38.1999 42.326 41.6195 39.5342 46.0672C36.7423 50.5149 35.4721 55.7497 35.9149 60.9824C36.3577 66.215 38.4896 71.1619 41.9892 75.0772C45.4887 78.9925 50.1663 81.6641 55.3166 82.689C60.467 83.714 65.811 83.0369 70.5429 80.7598L84.0772 86.4684L79.5429 73.2941C82.6185 69.1307 84.2715 64.0874 84.2572 58.9112ZM48.6172 63.6427C47.8954 63.6393 47.1908 63.422 46.5924 63.0184C45.994 62.6147 45.5286 62.0427 45.2552 61.3747C44.9817 60.7067 44.9123 59.9727 45.0558 59.2653C45.1993 58.5579 45.5493 57.9088 46.0615 57.4002C46.5737 56.8916 47.2251 56.5463 47.9335 56.4077C48.6419 56.2692 49.3755 56.3437 50.0416 56.6219C50.7076 56.9001 51.2763 57.3694 51.6757 57.9706C52.0752 58.5719 52.2875 59.278 52.2858 59.9998C52.2812 60.969 51.8924 61.8968 51.2047 62.5798C50.517 63.2627 49.5864 63.6449 48.6172 63.6427ZM60.0086 63.6427C59.2861 63.6426 58.5798 63.4283 57.9791 63.0267C57.3785 62.6251 56.9104 62.0543 56.6343 61.3866C56.3582 60.7189 56.2864 59.9842 56.428 59.2757C56.5696 58.5672 56.9182 57.9166 57.4297 57.4062C57.9412 56.8959 58.5927 56.5488 59.3015 56.4089C60.0104 56.269 60.7449 56.3425 61.4119 56.6202C62.079 56.8979 62.6487 57.3672 63.0489 57.9688C63.449 58.5704 63.6617 59.2772 63.6601 59.9998C63.6555 60.9675 63.2679 61.894 62.582 62.5767C61.8961 63.2594 60.9678 63.6427 60.0001 63.6427H60.0086ZM70.9629 63.6427C70.2407 63.641 69.5353 63.4251 68.9357 63.0225C68.3362 62.6199 67.8695 62.0485 67.5947 61.3806C67.3199 60.7128 67.2494 59.9784 67.3919 59.2705C67.5345 58.5625 67.8838 57.9127 68.3956 57.4032C68.9075 56.8938 69.5589 56.5475 70.2675 56.4083C70.9762 56.2691 71.7102 56.3431 72.3767 56.621C73.0433 56.899 73.6125 57.3683 74.0123 57.9697C74.4121 58.5711 74.6246 59.2776 74.6229 59.9998C74.6218 60.4793 74.5262 60.9539 74.3417 61.3965C74.1571 61.8391 73.8872 62.241 73.5474 62.5792C73.2075 62.9175 72.8044 63.1855 72.3609 63.368C71.9175 63.5504 71.4424 63.6438 70.9629 63.6427Z" fill="#42210B"/>
<path d="M74.6227 60.0003C74.6244 60.7245 74.4112 61.433 74.0101 62.036C73.6089 62.639 73.0379 63.1094 72.3693 63.3878C71.7007 63.6661 70.9645 63.7398 70.254 63.5995C69.5434 63.4593 68.8905 63.1114 68.3778 62.5999C67.865 62.0883 67.5156 61.4362 67.3737 60.726C67.2318 60.0158 67.3038 59.2795 67.5805 58.6102C67.8573 57.9409 68.3264 57.3688 68.9285 56.9663C69.5305 56.5637 70.2385 56.3488 70.9627 56.3488C71.443 56.3477 71.9187 56.4413 72.3627 56.6243C72.8067 56.8073 73.2102 57.0761 73.5502 57.4153C73.8902 57.7544 74.1599 58.1574 74.344 58.6009C74.528 59.0445 74.6227 59.52 74.6227 60.0003Z" fill="#CDA677"/>
<path d="M63.6598 59.9999C63.6598 60.7237 63.4452 61.4314 63.043 62.0332C62.6409 62.6351 62.0692 63.1042 61.4005 63.3813C60.7317 63.6583 59.9958 63.7308 59.2858 63.5895C58.5758 63.4483 57.9237 63.0997 57.4118 62.5879C56.9 62.076 56.5514 61.4239 56.4102 60.7139C56.269 60.0039 56.3414 59.268 56.6184 58.5992C56.8955 57.9305 57.3646 57.3588 57.9665 56.9567C58.5683 56.5545 59.276 56.3399 59.9998 56.3399C60.4808 56.3387 60.9572 56.4326 61.4018 56.6161C61.8464 56.7997 62.2503 57.0692 62.5904 57.4093C62.9305 57.7494 63.2 58.1533 63.3836 58.5979C63.5671 59.0425 63.661 59.5189 63.6598 59.9999Z" fill="#CDA677"/>
<path d="M52.2858 59.9996C52.2875 60.7238 52.0743 61.4323 51.6732 62.0353C51.272 62.6383 50.701 63.1087 50.0324 63.3871C49.3638 63.6654 48.6276 63.7391 47.917 63.5989C47.2065 63.4586 46.5536 63.1107 46.0408 62.5992C45.5281 62.0877 45.1787 61.4355 45.0368 60.7253C44.8949 60.0151 44.9668 59.2788 45.2436 58.6095C45.5204 57.9402 45.9895 57.3681 46.5915 56.9656C47.1936 56.563 47.9016 56.3481 48.6258 56.3481C49.595 56.3481 50.5247 56.7326 51.2108 57.4171C51.8969 58.1016 52.2835 59.0304 52.2858 59.9996Z" fill="#CDA677"/>
<defs>
<linearGradient id="paint0_linear" x1="59.1857" y1="127.183" x2="60.8829" y2="-12.6857" gradientUnits="userSpaceOnUse">
<stop stop-color="#CDA677"/>
<stop offset="0.25" stop-color="#CFA97C"/>
<stop offset="1" stop-color="#F0E5D7"/>
</linearGradient>
</defs>
</svg>
