<svg width="120" height="120" viewBox="0 0 120 120" fill="none" xmlns="http://www.w3.org/2000/svg">
<path d="M0 60C0 93.1371 26.8629 120 60 120C93.1371 120 120 93.1371 120 60C120 26.8629 93.1371 0 60 0C26.8629 0 0 26.8629 0 60Z" fill="url(#paint0_linear_4742_6464)"/>
<path d="M0 108C0 101.373 5.37258 96 12 96H108C114.627 96 120 101.373 120 108C120 114.627 114.627 120 108 120H12C5.37259 120 0 114.627 0 108Z" fill="url(#paint1_linear_4742_6464)"/>
<path d="M37.528 104.6C37.568 104.6 37.6 104.616 37.624 104.648C37.656 104.672 37.672 104.704 37.672 104.744V105.92C37.672 105.96 37.656 105.996 37.624 106.028C37.6 106.052 37.568 106.064 37.528 106.064H35.38C35.34 106.064 35.32 106.084 35.32 106.124V112.856C35.32 112.896 35.304 112.932 35.272 112.964C35.248 112.988 35.216 113 35.176 113H33.772C33.732 113 33.696 112.988 33.664 112.964C33.64 112.932 33.628 112.896 33.628 112.856V106.124C33.628 106.084 33.608 106.064 33.568 106.064H31.48C31.44 106.064 31.404 106.052 31.372 106.028C31.348 105.996 31.336 105.96 31.336 105.92V104.744C31.336 104.704 31.348 104.672 31.372 104.648C31.404 104.616 31.44 104.6 31.48 104.6H37.528ZM39.4852 106.136C39.2132 106.136 38.9852 106.048 38.8012 105.872C38.6252 105.688 38.5372 105.46 38.5372 105.188C38.5372 104.908 38.6252 104.68 38.8012 104.504C38.9772 104.328 39.2052 104.24 39.4852 104.24C39.7652 104.24 39.9932 104.328 40.1692 104.504C40.3452 104.68 40.4332 104.908 40.4332 105.188C40.4332 105.46 40.3412 105.688 40.1572 105.872C39.9812 106.048 39.7572 106.136 39.4852 106.136ZM38.7652 113C38.7252 113 38.6892 112.988 38.6572 112.964C38.6332 112.932 38.6212 112.896 38.6212 112.856V106.964C38.6212 106.924 38.6332 106.892 38.6572 106.868C38.6892 106.836 38.7252 106.82 38.7652 106.82H40.1692C40.2092 106.82 40.2412 106.836 40.2652 106.868C40.2972 106.892 40.3132 106.924 40.3132 106.964V112.856C40.3132 112.896 40.2972 112.932 40.2652 112.964C40.2412 112.988 40.2092 113 40.1692 113H38.7652ZM48.4718 106.736C49.0958 106.736 49.5838 106.924 49.9358 107.3C50.2878 107.676 50.4638 108.204 50.4638 108.884V112.856C50.4638 112.896 50.4478 112.932 50.4158 112.964C50.3918 112.988 50.3598 113 50.3198 113H48.9158C48.8758 113 48.8398 112.988 48.8078 112.964C48.7838 112.932 48.7718 112.896 48.7718 112.856V109.256C48.7718 108.928 48.6878 108.668 48.5198 108.476C48.3518 108.284 48.1278 108.188 47.8478 108.188C47.5678 108.188 47.3398 108.284 47.1638 108.476C46.9878 108.668 46.8998 108.924 46.8998 109.244V112.856C46.8998 112.896 46.8838 112.932 46.8518 112.964C46.8278 112.988 46.7958 113 46.7558 113H45.3638C45.3238 113 45.2878 112.988 45.2558 112.964C45.2318 112.932 45.2198 112.896 45.2198 112.856V109.256C45.2198 108.936 45.1318 108.68 44.9558 108.488C44.7798 108.288 44.5518 108.188 44.2718 108.188C44.0158 108.188 43.7998 108.264 43.6238 108.416C43.4558 108.568 43.3558 108.78 43.3238 109.052V112.856C43.3238 112.896 43.3078 112.932 43.2758 112.964C43.2518 112.988 43.2198 113 43.1798 113H41.7758C41.7358 113 41.6998 112.988 41.6678 112.964C41.6438 112.932 41.6318 112.896 41.6318 112.856V106.976C41.6318 106.936 41.6438 106.904 41.6678 106.88C41.6998 106.848 41.7358 106.832 41.7758 106.832H43.1798C43.2198 106.832 43.2518 106.848 43.2758 106.88C43.3078 106.904 43.3238 106.936 43.3238 106.976V107.444C43.3238 107.468 43.3318 107.484 43.3478 107.492C43.3638 107.5 43.3798 107.492 43.3958 107.468C43.7238 106.98 44.2318 106.736 44.9198 106.736C45.3198 106.736 45.6678 106.82 45.9638 106.988C46.2678 107.156 46.4998 107.396 46.6598 107.708C46.6838 107.756 46.7118 107.756 46.7438 107.708C46.9198 107.38 47.1558 107.136 47.4518 106.976C47.7558 106.816 48.0958 106.736 48.4718 106.736ZM57.0762 109.28C57.1242 109.584 57.1402 109.924 57.1242 110.3C57.1162 110.396 57.0642 110.444 56.9682 110.444H53.2602C53.2122 110.444 53.1962 110.464 53.2122 110.504C53.2362 110.664 53.2802 110.824 53.3442 110.984C53.5522 111.432 53.9762 111.656 54.6162 111.656C55.1282 111.648 55.5322 111.44 55.8282 111.032C55.8602 110.984 55.8962 110.96 55.9362 110.96C55.9602 110.96 55.9882 110.976 56.0202 111.008L56.8842 111.86C56.9242 111.9 56.9442 111.936 56.9442 111.968C56.9442 111.984 56.9282 112.016 56.8962 112.064C56.6322 112.392 56.2922 112.648 55.8762 112.832C55.4602 113.008 55.0042 113.096 54.5082 113.096C53.8202 113.096 53.2362 112.94 52.7562 112.628C52.2842 112.316 51.9442 111.88 51.7362 111.32C51.5682 110.92 51.4842 110.396 51.4842 109.748C51.4842 109.308 51.5442 108.92 51.6642 108.584C51.8482 108.016 52.1682 107.564 52.6242 107.228C53.0882 106.892 53.6362 106.724 54.2682 106.724C55.0682 106.724 55.7082 106.956 56.1882 107.42C56.6762 107.884 56.9722 108.504 57.0762 109.28ZM54.2802 108.188C53.7762 108.188 53.4442 108.424 53.2842 108.896C53.2522 109 53.2242 109.128 53.2002 109.28C53.2002 109.32 53.2202 109.34 53.2602 109.34H55.3362C55.3842 109.34 55.4002 109.32 55.3842 109.28C55.3442 109.048 55.3242 108.936 55.3242 108.944C55.2522 108.704 55.1242 108.52 54.9402 108.392C54.7642 108.256 54.5442 108.188 54.2802 108.188ZM61.4813 106.136C61.2093 106.136 60.9813 106.048 60.7973 105.872C60.6213 105.688 60.5333 105.46 60.5333 105.188C60.5333 104.908 60.6213 104.68 60.7973 104.504C60.9733 104.328 61.2013 104.24 61.4813 104.24C61.7613 104.24 61.9893 104.328 62.1653 104.504C62.3413 104.68 62.4293 104.908 62.4293 105.188C62.4293 105.46 62.3373 105.688 62.1533 105.872C61.9773 106.048 61.7533 106.136 61.4813 106.136ZM60.7613 113C60.7213 113 60.6853 112.988 60.6533 112.964C60.6293 112.932 60.6173 112.896 60.6173 112.856V106.964C60.6173 106.924 60.6293 106.892 60.6533 106.868C60.6853 106.836 60.7213 106.82 60.7613 106.82H62.1653C62.2053 106.82 62.2373 106.836 62.2613 106.868C62.2933 106.892 62.3093 106.924 62.3093 106.964V112.856C62.3093 112.896 62.2933 112.932 62.2613 112.964C62.2373 112.988 62.2053 113 62.1653 113H60.7613ZM66.8439 106.736C67.4839 106.736 67.9999 106.932 68.3919 107.324C68.7839 107.716 68.9799 108.248 68.9799 108.92V112.856C68.9799 112.896 68.9639 112.932 68.9319 112.964C68.9079 112.988 68.8759 113 68.8359 113H67.4319C67.3919 113 67.3559 112.988 67.3239 112.964C67.2999 112.932 67.2879 112.896 67.2879 112.856V109.268C67.2879 108.948 67.1959 108.688 67.0119 108.488C66.8359 108.288 66.5999 108.188 66.3039 108.188C66.0079 108.188 65.7679 108.288 65.5839 108.488C65.4079 108.688 65.3199 108.948 65.3199 109.268V112.856C65.3199 112.896 65.3039 112.932 65.2719 112.964C65.2479 112.988 65.2159 113 65.1759 113H63.7719C63.7319 113 63.6959 112.988 63.6639 112.964C63.6399 112.932 63.6279 112.896 63.6279 112.856V106.976C63.6279 106.936 63.6399 106.904 63.6639 106.88C63.6959 106.848 63.7319 106.832 63.7719 106.832H65.1759C65.2159 106.832 65.2479 106.848 65.2719 106.88C65.3039 106.904 65.3199 106.936 65.3199 106.976V107.396C65.3199 107.42 65.3279 107.436 65.3439 107.444C65.3599 107.452 65.3719 107.448 65.3799 107.432C65.7079 106.968 66.1959 106.736 66.8439 106.736ZM75.6648 106.748C75.9528 106.748 76.1808 106.804 76.3488 106.916C76.4128 106.948 76.4368 107.008 76.4208 107.096L76.1688 108.464C76.1608 108.56 76.1048 108.588 76.0008 108.548C75.8808 108.508 75.7408 108.488 75.5808 108.488C75.5168 108.488 75.4288 108.496 75.3168 108.512C75.0288 108.536 74.7848 108.644 74.5848 108.836C74.3848 109.02 74.2848 109.268 74.2848 109.58V112.856C74.2848 112.896 74.2688 112.932 74.2368 112.964C74.2128 112.988 74.1808 113 74.1408 113H72.7368C72.6968 113 72.6608 112.988 72.6288 112.964C72.6048 112.932 72.5928 112.896 72.5928 112.856V106.976C72.5928 106.936 72.6048 106.904 72.6288 106.88C72.6608 106.848 72.6968 106.832 72.7368 106.832H74.1408C74.1808 106.832 74.2128 106.848 74.2368 106.88C74.2688 106.904 74.2848 106.936 74.2848 106.976V107.432C74.2848 107.456 74.2928 107.472 74.3088 107.48C74.3248 107.488 74.3368 107.484 74.3448 107.468C74.6728 106.988 75.1128 106.748 75.6648 106.748ZM80.7865 106.976C80.7865 106.936 80.7985 106.904 80.8225 106.88C80.8545 106.848 80.8905 106.832 80.9305 106.832H82.3345C82.3745 106.832 82.4065 106.848 82.4305 106.88C82.4625 106.904 82.4785 106.936 82.4785 106.976V112.856C82.4785 112.896 82.4625 112.932 82.4305 112.964C82.4065 112.988 82.3745 113 82.3345 113H80.9305C80.8905 113 80.8545 112.988 80.8225 112.964C80.7985 112.932 80.7865 112.896 80.7865 112.856V112.448C80.7865 112.424 80.7785 112.412 80.7625 112.412C80.7465 112.404 80.7305 112.412 80.7145 112.436C80.3945 112.868 79.8985 113.084 79.2265 113.084C78.6185 113.084 78.1185 112.9 77.7265 112.532C77.3345 112.164 77.1385 111.648 77.1385 110.984V106.976C77.1385 106.936 77.1505 106.904 77.1745 106.88C77.2065 106.848 77.2425 106.832 77.2825 106.832H78.6745C78.7145 106.832 78.7465 106.848 78.7705 106.88C78.8025 106.904 78.8185 106.936 78.8185 106.976V110.564C78.8185 110.884 78.9025 111.144 79.0705 111.344C79.2465 111.544 79.4865 111.644 79.7905 111.644C80.0625 111.644 80.2865 111.564 80.4625 111.404C80.6385 111.236 80.7465 111.02 80.7865 110.756V106.976ZM90.5656 106.736C91.1896 106.736 91.6776 106.924 92.0296 107.3C92.3816 107.676 92.5576 108.204 92.5576 108.884V112.856C92.5576 112.896 92.5416 112.932 92.5096 112.964C92.4856 112.988 92.4536 113 92.4136 113H91.0096C90.9696 113 90.9336 112.988 90.9016 112.964C90.8776 112.932 90.8656 112.896 90.8656 112.856V109.256C90.8656 108.928 90.7816 108.668 90.6136 108.476C90.4456 108.284 90.2216 108.188 89.9416 108.188C89.6616 108.188 89.4336 108.284 89.2576 108.476C89.0816 108.668 88.9936 108.924 88.9936 109.244V112.856C88.9936 112.896 88.9776 112.932 88.9456 112.964C88.9216 112.988 88.8896 113 88.8496 113H87.4576C87.4176 113 87.3816 112.988 87.3496 112.964C87.3256 112.932 87.3136 112.896 87.3136 112.856V109.256C87.3136 108.936 87.2256 108.68 87.0496 108.488C86.8736 108.288 86.6456 108.188 86.3656 108.188C86.1096 108.188 85.8936 108.264 85.7176 108.416C85.5496 108.568 85.4496 108.78 85.4176 109.052V112.856C85.4176 112.896 85.4016 112.932 85.3696 112.964C85.3456 112.988 85.3136 113 85.2736 113H83.8696C83.8296 113 83.7936 112.988 83.7616 112.964C83.7376 112.932 83.7256 112.896 83.7256 112.856V106.976C83.7256 106.936 83.7376 106.904 83.7616 106.88C83.7936 106.848 83.8296 106.832 83.8696 106.832H85.2736C85.3136 106.832 85.3456 106.848 85.3696 106.88C85.4016 106.904 85.4176 106.936 85.4176 106.976V107.444C85.4176 107.468 85.4256 107.484 85.4416 107.492C85.4576 107.5 85.4736 107.492 85.4896 107.468C85.8176 106.98 86.3256 106.736 87.0136 106.736C87.4136 106.736 87.7616 106.82 88.0576 106.988C88.3616 107.156 88.5936 107.396 88.7536 107.708C88.7776 107.756 88.8056 107.756 88.8376 107.708C89.0136 107.38 89.2496 107.136 89.5456 106.976C89.8496 106.816 90.1896 106.736 90.5656 106.736ZM100.585 106.736C101.209 106.736 101.697 106.924 102.049 107.3C102.401 107.676 102.577 108.204 102.577 108.884V112.856C102.577 112.896 102.561 112.932 102.529 112.964C102.505 112.988 102.473 113 102.433 113H101.029C100.989 113 100.953 112.988 100.921 112.964C100.897 112.932 100.885 112.896 100.885 112.856V109.256C100.885 108.928 100.801 108.668 100.633 108.476C100.465 108.284 100.241 108.188 99.9611 108.188C99.6811 108.188 99.4531 108.284 99.2771 108.476C99.1011 108.668 99.0131 108.924 99.0131 109.244V112.856C99.0131 112.896 98.9971 112.932 98.9651 112.964C98.9411 112.988 98.9091 113 98.8691 113H97.4771C97.4371 113 97.4011 112.988 97.3691 112.964C97.3451 112.932 97.3331 112.896 97.3331 112.856V109.256C97.3331 108.936 97.2451 108.68 97.0691 108.488C96.8931 108.288 96.6651 108.188 96.3851 108.188C96.1291 108.188 95.9131 108.264 95.7371 108.416C95.5691 108.568 95.4691 108.78 95.4371 109.052V112.856C95.4371 112.896 95.4211 112.932 95.3891 112.964C95.3651 112.988 95.3331 113 95.2931 113H93.8891C93.8491 113 93.8131 112.988 93.7811 112.964C93.7571 112.932 93.7451 112.896 93.7451 112.856V106.976C93.7451 106.936 93.7571 106.904 93.7811 106.88C93.8131 106.848 93.8491 106.832 93.8891 106.832H95.2931C95.3331 106.832 95.3651 106.848 95.3891 106.88C95.4211 106.904 95.4371 106.936 95.4371 106.976V107.444C95.4371 107.468 95.4451 107.484 95.4611 107.492C95.4771 107.5 95.4931 107.492 95.5091 107.468C95.8371 106.98 96.3451 106.736 97.0331 106.736C97.4331 106.736 97.7811 106.82 98.0771 106.988C98.3811 107.156 98.6131 107.396 98.7731 107.708C98.7971 107.756 98.8251 107.756 98.8571 107.708C99.0331 107.38 99.2691 107.136 99.5651 106.976C99.8691 106.816 100.209 106.736 100.585 106.736ZM103.459 115.388C103.435 115.388 103.415 115.372 103.399 115.34C103.383 115.316 103.375 115.284 103.375 115.244V114.14C103.375 114.1 103.387 114.064 103.411 114.032C103.443 114.008 103.479 113.996 103.519 113.996C103.855 113.988 104.119 113.96 104.311 113.912C104.511 113.864 104.667 113.772 104.779 113.636C104.899 113.5 104.991 113.3 105.055 113.036C105.063 113.02 105.063 112.996 105.055 112.964L103.087 106.988C103.079 106.972 103.075 106.952 103.075 106.928C103.075 106.856 103.119 106.82 103.207 106.82H104.707C104.795 106.82 104.851 106.86 104.875 106.94L105.883 110.828C105.891 110.852 105.903 110.864 105.919 110.864C105.935 110.864 105.947 110.852 105.955 110.828L106.963 106.94C106.987 106.86 107.043 106.82 107.131 106.82H108.595C108.643 106.82 108.675 106.836 108.691 106.868C108.715 106.892 108.719 106.932 108.703 106.988L106.627 113.228C106.427 113.812 106.223 114.248 106.015 114.536C105.807 114.832 105.515 115.048 105.139 115.184C104.763 115.32 104.231 115.388 103.543 115.388H103.459Z" fill="white"/>
<path d="M11.8887 114.715H8.98828L10.623 105.311L7.64355 106.154L8.04785 103.808L13.708 101.918L14.0332 101.909L11.8887 114.715Z" fill="#FDB62F"/>
<path d="M17.915 107.486C17.9574 107.271 17.7913 107.11 17.417 107.003L17.0703 106.915C16.5039 106.765 16.0889 106.555 15.8252 106.285C15.5615 106.015 15.4378 105.694 15.4541 105.323C15.4704 104.815 15.695 104.404 16.1279 104.088C16.5641 103.769 17.0947 103.613 17.7197 103.619C18.3415 103.626 18.8444 103.784 19.2285 104.093C19.6159 104.402 19.8128 104.819 19.8193 105.343L18.2178 105.338C18.2308 104.921 18.0469 104.713 17.666 104.713C17.5033 104.713 17.3519 104.762 17.2119 104.859C17.0719 104.954 16.9889 105.081 16.9629 105.24C16.9076 105.504 17.1403 105.685 17.6611 105.782C18.1136 105.89 18.4635 106.015 18.7109 106.158C18.9583 106.298 19.1471 106.472 19.2773 106.681C19.4076 106.889 19.4678 107.14 19.458 107.433C19.4482 107.752 19.3441 108.036 19.1455 108.287C18.9469 108.538 18.6589 108.738 18.2812 108.888C17.9069 109.037 17.5 109.107 17.0605 109.098C16.6797 109.094 16.3249 109.015 15.9961 108.858C15.6706 108.702 15.415 108.491 15.2295 108.224C15.0472 107.953 14.9528 107.644 14.9463 107.296L16.4404 107.306C16.4469 107.774 16.6813 108.006 17.1436 107.999C17.3421 107.999 17.5114 107.955 17.6514 107.867C17.7913 107.776 17.8792 107.649 17.915 107.486ZM22.9688 102.403L22.7393 103.717H23.584L23.3838 104.859H22.5391L22.1289 107.286C22.1061 107.452 22.1159 107.577 22.1582 107.662C22.2038 107.747 22.3145 107.792 22.4902 107.799C22.5586 107.802 22.6986 107.794 22.9102 107.774L22.793 108.966C22.5228 109.054 22.2347 109.094 21.9287 109.088C21.4307 109.081 21.0579 108.935 20.8105 108.648C20.5632 108.362 20.4622 107.973 20.5078 107.481L20.9375 104.859H20.2832L20.4785 103.717H21.1328L21.3623 102.403H22.9688Z" fill="#FDB62F"/>
<rect opacity="0.5" x="26.667" y="101.143" width="0.833333" height="13.7143" rx="0.416667" fill="#F35063"/>
<path d="M99.7851 47.4377L87.1515 83.5198C86.4795 85.4255 84.5739 86.5103 82.9035 85.9247L80.6187 85.1327C81.4107 84.0478 81.8811 82.699 81.8811 81.2062V36.5368C81.8811 36.3304 81.8811 36.1288 81.8523 35.9512L97.5051 41.4328C99.6459 42.1961 100.668 44.8937 99.7899 47.4425L99.7851 47.4377Z" fill="#42210B"/>
<path d="M40.8986 85.0746L39.6986 85.4826C37.9994 86.0682 36.1226 84.9546 35.4794 83.049L23.345 46.7941C22.4666 44.2165 23.5514 41.5476 25.721 40.8132L39.6746 36.1523V81.201C39.6746 82.665 40.1162 84.0138 40.9034 85.0698L40.8986 85.0746Z" fill="#42210B"/>
<path d="M79.529 35.126C79.001 32.6635 77.0954 30.8203 74.8106 30.8203H46.7305C44.3833 30.8203 42.4201 32.7835 41.9545 35.39C41.8921 35.7452 41.8633 36.1244 41.8633 36.5372V81.2066C41.8633 82.4354 42.3337 83.549 43.0969 84.3411C43.7737 85.0467 44.6473 85.4883 45.6457 85.4883H75.8954C76.865 85.4883 77.7386 85.0755 78.4154 84.3411C79.1786 83.6066 79.673 82.469 79.673 81.2066V36.5372C79.673 36.038 79.6154 35.5676 79.529 35.1308V35.126ZM66.1994 64.032C63.4874 66.7968 62.1097 68.6496 61.4185 69.7489C61.1209 70.2241 60.4105 70.2241 60.1177 69.7489C59.4265 68.6544 58.0537 66.8016 55.3369 64.0368C52.1833 60.8207 49.6777 58.4927 49.6777 55.6703C49.6777 54.1726 50.0185 52.6606 50.8633 51.4174C51.8377 49.9774 53.4889 49.027 55.3561 49.027C58.2985 49.027 60.6937 51.3838 60.7753 54.3118C60.8473 51.3838 63.2378 49.027 66.1898 49.027C68.057 49.027 69.7082 49.9774 70.6826 51.4174C71.5274 52.6606 71.8682 54.1726 71.8682 55.6703C71.8682 58.4927 69.3578 60.8207 66.2042 64.0368L66.1994 64.032ZM60.7705 54.3742V54.307C60.7705 54.331 60.7705 54.3502 60.7705 54.3742Z" fill="#42210B"/>
<path d="M98.8628 46.8674L86.2291 82.9495C85.5571 84.8551 83.6515 85.94 81.9811 85.3544L79.6963 84.5623C80.4883 83.4775 80.9587 82.1287 80.9587 80.6359V35.9665C80.9587 35.7601 80.9587 35.5585 80.9299 35.3809L96.5827 40.8625C98.7236 41.6257 99.746 44.3234 98.8676 46.8722L98.8628 46.8674Z" fill="url(#paint2_linear_4742_6464)"/>
<path d="M39.9763 84.4995L38.7763 84.9075C37.0771 85.4931 35.2003 84.3795 34.5571 82.4739L22.4226 46.2238C21.5442 43.6461 22.629 40.9773 24.7986 40.2429L38.7523 35.582V80.6307C38.7523 82.0947 39.1939 83.4435 39.9811 84.4995H39.9763Z" fill="url(#paint3_linear_4742_6464)"/>
<path d="M78.6115 34.5557C78.0835 32.0932 76.1779 30.25 73.8931 30.25H45.813C43.4658 30.25 41.5026 32.2132 41.037 34.8197C40.9746 35.1749 40.9458 35.5541 40.9458 35.9669V80.6363C40.9458 81.8651 41.4162 82.9787 42.1794 83.7707C42.8562 84.4764 43.7298 84.918 44.7282 84.918H74.9779C75.9475 84.918 76.8211 84.5052 77.4979 83.7707C78.2611 83.0363 78.7555 81.8987 78.7555 80.6363V35.9669C78.7555 35.4677 78.6979 34.9973 78.6115 34.5605V34.5557ZM65.2819 63.4617C62.5699 66.2265 61.1923 68.0793 60.5011 69.1785C60.2035 69.6537 59.4931 69.6537 59.2003 69.1785C58.5091 68.0841 57.1363 66.2313 54.4194 63.4665C51.2658 60.2504 48.7602 57.9224 48.7602 55.0999C48.7602 53.6023 49.101 52.0903 49.9458 50.8471C50.9202 49.4071 52.5714 48.4567 54.4386 48.4567C57.3811 48.4567 59.7763 50.8135 59.8579 53.7415C59.9299 50.8135 62.3203 48.4567 65.2723 48.4567C67.1395 48.4567 68.7907 49.4071 69.7651 50.8471C70.6099 52.0903 70.9507 53.6023 70.9507 55.0999C70.9507 57.9224 68.4403 60.2504 65.2867 63.4665L65.2819 63.4617ZM59.8531 53.8039V53.7367C59.8531 53.7607 59.8531 53.7799 59.8531 53.8039Z" fill="#42210B"/>
<defs>
<linearGradient id="paint0_linear_4742_6464" x1="59.1857" y1="127.183" x2="60.8829" y2="-12.6857" gradientUnits="userSpaceOnUse">
<stop stop-color="#CDA677"/>
<stop offset="0.25" stop-color="#CFA97C"/>
<stop offset="1" stop-color="#F0E5D7"/>
</linearGradient>
<linearGradient id="paint1_linear_4742_6464" x1="120" y1="108" x2="6.79373" y2="135.733" gradientUnits="userSpaceOnUse">
<stop stop-color="#F75163"/>
<stop offset="1" stop-color="#390346"/>
</linearGradient>
<linearGradient id="paint2_linear_4742_6464" x1="90.794" y1="85.5132" x2="90.794" y2="35.3809" gradientUnits="userSpaceOnUse">
<stop stop-color="#724425"/>
<stop offset="1" stop-color="#CCA677"/>
</linearGradient>
<linearGradient id="paint3_linear_4742_6464" x1="32.291" y1="85.0639" x2="32.291" y2="35.582" gradientUnits="userSpaceOnUse">
<stop stop-color="#724425"/>
<stop offset="1" stop-color="#CCA677"/>
</linearGradient>
</defs>
</svg>
