<svg width="120" height="120" viewBox="0 0 120 120" fill="none" xmlns="http://www.w3.org/2000/svg">
<path d="M0 60C0 93.1371 26.8629 120 60 120C93.1371 120 120 93.1371 120 60C120 26.8629 93.1371 0 60 0C26.8629 0 0 26.8629 0 60Z" fill="url(#paint0_linear)"/>
<path d="M87.5656 38.8885L87.4885 37.8085C87.4885 37.8085 84.7628 37.5857 84.5742 37.5171C75.4971 37.0628 65.4428 34.1399 60.2142 26.6828C60.0428 26.4342 59.9228 26.4514 59.7771 26.6828C54.1456 34.6885 43.2428 37.3199 33.5828 37.6114C33.3599 37.6628 32.5371 37.7657 32.3913 37.7742C32.4175 37.8783 32.4175 37.9873 32.3913 38.0914V58.8599C32.396 58.8854 32.396 58.9116 32.3913 58.9371V62.5714C32.3951 62.5998 32.3951 62.6286 32.3913 62.6571C32.2235 67.9876 33.8271 73.2234 36.9513 77.5457C37.0628 77.6914 38.5713 79.6714 39.5228 80.7514C44.9313 86.5714 52.2171 90.5057 59.7342 93.4285C59.8127 93.4625 59.8973 93.48 59.9828 93.48C60.0683 93.48 60.1529 93.4625 60.2313 93.4285C71.5628 89.0485 83.1428 81.8399 86.5713 70.1485C88.1142 65.9485 87.3771 56.4342 87.5313 52.0028C87.5742 47.6314 87.5742 43.2514 87.5656 38.8885ZM82.4913 43.0028C82.4913 49.7485 82.4399 56.4942 82.4913 63.2485C82.7056 75.4714 71.1942 83.8199 60.3171 88.2514C60.2276 88.2896 60.1314 88.3093 60.0342 88.3093C59.937 88.3093 59.8407 88.2896 59.7513 88.2514C49.7142 84.1199 39.2056 77.0399 37.6628 66.1114C37.2599 58.3199 37.6628 50.4857 37.4828 42.6771C37.4828 42.2999 37.5942 42.1799 37.9799 42.1371C45.8313 41.3999 53.6999 38.9142 59.7256 33.9942C59.9313 33.8314 60.0256 33.8057 60.2485 33.9942C65.3913 38.2799 72.0428 40.6885 78.7799 41.7085H78.8571C78.9771 41.7085 79.097 41.7085 79.2171 41.7599C80.2456 41.8885 82.4913 42.0171 82.4913 42.0171V43.0028Z" fill="#42210B"/>
<path d="M82.4915 42.0513C82.4915 42.0513 80.2458 41.9228 79.2172 41.7942C79.0972 41.7942 78.9772 41.7942 78.8572 41.7428H78.7801C72.0429 40.6799 65.4344 38.2371 60.2486 34.0285C60.0258 33.8571 59.9315 33.8828 59.7258 34.0285C53.7258 38.9485 45.8315 41.4342 37.9801 42.1713C37.5944 42.2142 37.4829 42.3342 37.4829 42.7113C37.6286 50.5199 37.2601 58.3542 37.6629 66.1456C39.2058 77.0742 49.7486 84.1456 59.7515 88.3113C59.8409 88.3495 59.9371 88.3692 60.0344 88.3692C60.1316 88.3692 60.2278 88.3495 60.3172 88.3113C71.1858 83.8628 82.7058 75.5313 82.4915 63.3085C82.4401 56.1771 82.4915 49.1142 82.4915 42.0513ZM52.4915 51.9428C52.5798 50.3977 53.1635 48.9221 54.1562 47.7349C55.149 46.5476 56.4979 45.7118 58.0029 45.3513C59.6945 44.8884 61.4933 45.0156 63.1029 45.7121C64.7125 46.4086 66.0367 47.6328 66.8572 49.1828C67.7144 50.8113 67.5601 52.6113 67.5686 54.4028C67.5686 55.1656 67.5686 56.2542 67.5686 56.9742C67.5686 57.2313 67.4915 57.3342 67.2001 57.3256C66.3429 57.3256 65.5372 57.3256 64.6972 57.3256C64.4058 57.3256 64.3372 57.2313 64.3372 56.9742C64.3372 55.3628 64.3372 53.7513 64.3372 52.1399C64.2258 47.3228 57.0172 46.6285 55.8172 51.2142C55.6544 53.1239 55.6115 55.042 55.6886 56.9571C55.6886 57.2399 55.6029 57.3342 55.3029 57.3256C54.4458 57.3256 53.6658 57.3256 52.8429 57.3256C52.5772 57.3256 52.4658 57.2571 52.4658 56.9913C52.4658 55.3199 52.4144 53.6228 52.4658 51.9428H52.4915ZM69.0601 73.1142C65.6744 75.3771 61.1915 76.6114 57.0601 75.6856C54.5744 75.1028 51.9172 74.2542 50.2029 72.4371C49.931 72.1537 49.7804 71.7755 49.7829 71.3828C49.7829 67.1656 49.7829 62.9513 49.7829 58.7399C49.7829 58.3713 49.8944 58.2771 50.2801 58.2771C56.7601 58.2828 63.2372 58.2856 69.7115 58.2856C70.1229 58.2856 70.2086 58.4056 70.2086 58.7742C70.2086 62.8199 70.2086 66.8571 70.2086 70.9028C70.2203 71.3385 70.121 71.7701 69.9201 72.1569C69.7192 72.5438 69.4233 72.8732 69.0601 73.1142Z" fill="#CDA677"/>
<path d="M67.5428 56.9999C67.5428 57.257 67.4657 57.3599 67.1742 57.3513C66.3171 57.3513 65.5114 57.3513 64.6714 57.3513C64.3799 57.3513 64.3114 57.257 64.3114 56.9999C64.3114 55.3885 64.3114 53.777 64.3114 52.1656C64.1999 47.3485 56.9914 46.6542 55.7914 51.2399C55.6286 53.1496 55.5857 55.0677 55.6628 56.9828C55.6628 57.2656 55.5771 57.3599 55.2771 57.3513C54.4199 57.3513 53.6399 57.3513 52.8171 57.3513C52.5514 57.3513 52.4399 57.2827 52.4399 57.017C52.4399 55.3027 52.4399 53.5885 52.4399 51.9427C52.7828 44.5199 63.3857 42.5142 66.7971 49.1827C68.0399 51.6085 67.3628 54.4113 67.5428 56.9999Z" fill="#42210B"/>
<path d="M70.2087 58.7483C70.2087 58.3797 70.123 58.2597 69.7116 58.2597C63.2373 58.2768 56.7573 58.2854 50.2716 58.2854C49.8858 58.2854 49.7744 58.3797 49.7744 58.7483C49.7744 62.9654 49.7744 67.1797 49.7744 71.3911C49.8687 72.7968 51.4887 73.5083 52.603 74.1511C55.1796 75.492 58.0727 76.1062 60.9718 75.928C63.871 75.7499 66.6671 74.786 69.0601 73.1397C69.4303 72.8984 69.732 72.5658 69.9362 72.1739C70.1404 71.782 70.2401 71.3442 70.2259 70.9026C70.1744 66.8568 70.2001 62.794 70.2087 58.7483ZM60.7801 66.9083C61.0287 67.9454 61.2601 68.9826 61.5258 70.0197C61.5944 70.2768 61.5258 70.3111 61.2601 70.3026H58.6544C58.4573 70.3026 58.3801 70.3026 58.4316 70.0454C58.6801 69.034 58.903 67.9968 59.1601 66.9768C59.2544 66.6168 59.263 66.3854 58.843 66.1797C58.4917 65.9766 58.2172 65.6632 58.0622 65.2881C57.9072 64.913 57.8804 64.4973 57.9858 64.1054C58.1112 63.725 58.3401 63.3872 58.647 63.1299C58.9539 62.8726 59.3266 62.7061 59.723 62.6491C60.1194 62.592 60.5238 62.6468 60.8908 62.8072C61.2578 62.9676 61.5727 63.2272 61.8001 63.5568C61.9418 63.7781 62.0353 64.0268 62.0744 64.2867C62.1134 64.5466 62.0973 64.8117 62.0269 65.0649C61.9565 65.3181 61.8335 65.5536 61.666 65.756C61.4984 65.9585 61.29 66.1233 61.0544 66.2397C60.703 66.4283 60.7373 66.634 60.8059 66.9083H60.7801Z" fill="#42210B"/>
<path d="M61.5514 70.02C61.62 70.2771 61.5514 70.3114 61.2857 70.3029H58.6542C58.4571 70.3029 58.38 70.3029 58.4314 70.0457C58.68 69.0343 58.9028 67.9971 59.16 66.9771C59.2542 66.6171 59.2628 66.3857 58.8428 66.18C58.4915 65.9769 58.217 65.6635 58.062 65.2884C57.9071 64.9133 57.8802 64.4976 57.9857 64.1057C58.111 63.7253 58.34 63.3875 58.6469 63.1302C58.9538 62.8729 59.3264 62.7064 59.7228 62.6494C60.1192 62.5923 60.5237 62.6471 60.8906 62.8075C61.2576 62.9679 61.5725 63.2275 61.8 63.5571C61.9417 63.7784 62.0351 64.0271 62.0742 64.287C62.1133 64.5469 62.0971 64.812 62.0267 65.0652C61.9563 65.3184 61.8333 65.5539 61.6658 65.7563C61.4982 65.9588 61.2898 66.1236 61.0542 66.24C60.72 66.4286 60.7542 66.6343 60.8228 66.9086C61.0542 67.9457 61.2857 68.9829 61.5514 70.02Z" fill="#CDA677"/>
<path d="M0 108C0 101.373 5.37258 96 12 96H108C114.627 96 120 101.373 120 108C120 114.627 114.627 120 108 120H12C5.37259 120 0 114.627 0 108Z" fill="url(#paint1_linear)"/>
<path d="M35.356 112V105.496H37.684V103.996H31.3V105.496H33.64V112H35.356ZM39.4964 105.58C40.0004 105.58 40.4084 105.172 40.4084 104.668C40.4084 104.164 40.0004 103.768 39.4964 103.768C39.0044 103.768 38.5844 104.164 38.5844 104.668C38.5844 105.172 39.0044 105.58 39.4964 105.58ZM40.2644 112V106.204H38.7404V112H40.2644ZM50.4995 112V107.812C50.4995 106.624 49.8635 106.06 48.7955 106.06C47.9075 106.06 47.1395 106.588 46.8035 107.116C46.5875 106.456 46.0475 106.06 45.1955 106.06C44.3075 106.06 43.5395 106.612 43.2995 106.96V106.204H41.7755V112H43.2995V108.1C43.5275 107.776 43.9715 107.416 44.4995 107.416C45.1235 107.416 45.3635 107.8 45.3635 108.34V112H46.8995V108.088C47.1155 107.776 47.5595 107.416 48.0995 107.416C48.7235 107.416 48.9635 107.8 48.9635 108.34V112H50.4995ZM54.7183 112.144C55.6183 112.144 56.5303 111.868 57.1063 111.34L56.4343 110.356C56.0623 110.716 55.3783 110.932 54.8863 110.932C53.9023 110.932 53.3143 110.32 53.2183 109.588H57.5263V109.252C57.5263 107.356 56.3503 106.06 54.6223 106.06C52.8583 106.06 51.6223 107.416 51.6223 109.096C51.6223 110.956 52.9543 112.144 54.7183 112.144ZM56.0503 108.556H53.1943C53.2663 107.98 53.6743 107.272 54.6223 107.272C55.6303 107.272 56.0143 108.004 56.0503 108.556ZM62.4534 105.58C62.9574 105.58 63.3654 105.172 63.3654 104.668C63.3654 104.164 62.9574 103.768 62.4534 103.768C61.9614 103.768 61.5414 104.164 61.5414 104.668C61.5414 105.172 61.9614 105.58 62.4534 105.58ZM63.2214 112V106.204H61.6974V112H63.2214ZM70.1686 112V107.908C70.1686 106.78 69.5566 106.06 68.2846 106.06C67.3366 106.06 66.6286 106.516 66.2566 106.96V106.204H64.7326V112H66.2566V108.1C66.5086 107.752 66.9766 107.416 67.5766 107.416C68.2246 107.416 68.6446 107.692 68.6446 108.496V112H70.1686ZM76.2761 112V108.172C76.5281 107.8 77.2001 107.512 77.7041 107.512C77.8721 107.512 78.0161 107.524 78.1241 107.548V106.06C77.4041 106.06 76.6841 106.48 76.2761 106.996V106.204H74.7521V112H76.2761ZM84.5123 112V106.204H82.9883V110.128C82.7243 110.464 82.2563 110.788 81.6683 110.788C81.0203 110.788 80.6003 110.524 80.6003 109.72V106.204H79.0763V110.32C79.0763 111.448 79.6763 112.144 80.9483 112.144C81.8963 112.144 82.5923 111.712 82.9883 111.268V112H84.5123ZM94.7495 112V107.812C94.7495 106.624 94.1135 106.06 93.0455 106.06C92.1575 106.06 91.3895 106.588 91.0535 107.116C90.8375 106.456 90.2975 106.06 89.4455 106.06C88.5575 106.06 87.7895 106.612 87.5495 106.96V106.204H86.0255V112H87.5495V108.1C87.7775 107.776 88.2215 107.416 88.7495 107.416C89.3735 107.416 89.6135 107.8 89.6135 108.34V112H91.1495V108.088C91.3655 107.776 91.8095 107.416 92.3495 107.416C92.9735 107.416 93.2135 107.8 93.2135 108.34V112H94.7495ZM104.968 112V107.812C104.968 106.624 104.332 106.06 103.264 106.06C102.376 106.06 101.608 106.588 101.272 107.116C101.056 106.456 100.516 106.06 99.6643 106.06C98.7763 106.06 98.0083 106.612 97.7683 106.96V106.204H96.2443V112H97.7683V108.1C97.9963 107.776 98.4403 107.416 98.9683 107.416C99.5923 107.416 99.8323 107.8 99.8323 108.34V112H101.368V108.088C101.584 107.776 102.028 107.416 102.568 107.416C103.192 107.416 103.432 107.8 103.432 108.34V112H104.968ZM106.259 114.268C106.451 114.316 106.835 114.352 107.015 114.352C108.011 114.328 108.779 114.04 109.211 112.948L111.935 106.204H110.291L108.779 110.236L107.267 106.204H105.635L107.987 112.084L107.771 112.576C107.627 112.888 107.363 112.996 106.967 112.996C106.823 112.996 106.619 112.96 106.487 112.9L106.259 114.268Z" fill="white"/>
<path d="M11.8892 114.714H8.98877L10.6235 105.31L7.64404 106.154L8.04834 103.807L13.7085 101.917L14.0337 101.909L11.8892 114.714Z" fill="#FDB62F"/>
<path d="M17.915 107.486C17.9574 107.271 17.7913 107.11 17.417 107.003L17.0703 106.915C16.5039 106.765 16.0889 106.555 15.8252 106.285C15.5615 106.015 15.4378 105.694 15.4541 105.323C15.4704 104.815 15.695 104.404 16.1279 104.088C16.5641 103.769 17.0947 103.613 17.7197 103.619C18.3415 103.626 18.8444 103.784 19.2285 104.093C19.6159 104.402 19.8128 104.819 19.8193 105.343L18.2178 105.338C18.2308 104.921 18.0469 104.713 17.666 104.713C17.5033 104.713 17.3519 104.762 17.2119 104.859C17.0719 104.954 16.9889 105.081 16.9629 105.24C16.9076 105.504 17.1403 105.685 17.6611 105.782C18.1136 105.89 18.4635 106.015 18.7109 106.158C18.9583 106.298 19.1471 106.472 19.2773 106.681C19.4076 106.889 19.4678 107.14 19.458 107.433C19.4482 107.752 19.3441 108.036 19.1455 108.287C18.9469 108.538 18.6589 108.738 18.2812 108.888C17.9069 109.037 17.5 109.107 17.0605 109.098C16.6797 109.094 16.3249 109.015 15.9961 108.858C15.6706 108.702 15.415 108.491 15.2295 108.224C15.0472 107.953 14.9528 107.644 14.9463 107.296L16.4404 107.306C16.4469 107.774 16.6813 108.006 17.1436 107.999C17.3421 107.999 17.5114 107.955 17.6514 107.867C17.7913 107.776 17.8792 107.649 17.915 107.486ZM22.9688 102.403L22.7393 103.717H23.584L23.3838 104.859H22.5391L22.1289 107.286C22.1061 107.452 22.1159 107.577 22.1582 107.662C22.2038 107.747 22.3145 107.792 22.4902 107.799C22.5586 107.802 22.6986 107.794 22.9102 107.774L22.793 108.966C22.5228 109.054 22.2347 109.094 21.9287 109.088C21.4307 109.081 21.0579 108.935 20.8105 108.648C20.5632 108.362 20.4622 107.973 20.5078 107.481L20.9375 104.859H20.2832L20.4785 103.717H21.1328L21.3623 102.403H22.9688Z" fill="#FDB62F"/>
<rect opacity="0.5" x="26.667" y="101.143" width="0.833333" height="13.7143" rx="0.416667" fill="#F35063"/>
<defs>
<linearGradient id="paint0_linear" x1="59.1857" y1="127.183" x2="60.8829" y2="-12.6857" gradientUnits="userSpaceOnUse">
<stop stop-color="#CDA677"/>
<stop offset="0.25" stop-color="#CFA97C"/>
<stop offset="1" stop-color="#F0E5D7"/>
</linearGradient>
<linearGradient id="paint1_linear" x1="120" y1="108" x2="6.79373" y2="135.733" gradientUnits="userSpaceOnUse">
<stop stop-color="#F75163"/>
<stop offset="1" stop-color="#390346"/>
</linearGradient>
</defs>
</svg>
