<svg width="20" height="20" viewBox="0 0 20 20" fill="none" xmlns="http://www.w3.org/2000/svg">
<path fill-rule="evenodd" clip-rule="evenodd" d="M19.1943 3.39994C19.4366 4.02314 19.6058 4.74234 19.6519 5.78846C19.698 6.83849 19.7019 7.17308 19.7019 9.84615C19.7019 12.5192 19.6904 12.8538 19.6442 13.9038C19.5981 14.95 19.4288 15.6654 19.1866 16.2924C18.675 17.6154 17.6289 18.6615 16.3057 19.1731C15.6827 19.4154 14.9635 19.5846 13.9174 19.6307C12.8673 19.677 12.5328 19.6884 9.85968 19.6884C7.1866 19.6884 6.85187 19.677 5.80199 19.6307C4.75571 19.5846 4.04042 19.4154 3.41346 19.1731C2.75962 18.927 2.16346 18.5385 1.67113 18.0385C1.17113 17.5461 0.782755 16.9539 0.532755 16.2924C0.290418 15.6692 0.121097 14.95 0.0749729 13.9038C0.0288491 12.8538 0.0172806 12.5192 0.0172806 9.84615C0.0172806 7.17308 0.0288491 6.83849 0.0788791 5.78456C0.125003 4.73843 0.294174 4.02314 0.536511 3.39618C0.782755 2.74234 1.17113 2.14618 1.67113 1.65385C2.16346 1.14994 2.75571 0.765325 3.41737 0.515325C4.04042 0.273137 4.75962 0.103816 5.80574 0.0576923C6.85577 0.0115685 7.19036 0 9.86343 0C12.5365 0 12.8711 0.0115685 13.925 0.0615985C14.9712 0.107722 15.6866 0.276893 16.3134 0.519231C16.9673 0.765325 17.5634 1.15385 18.0557 1.65385C18.5596 2.14618 18.9443 2.73843 19.1943 3.39994ZM17.5404 15.6538C17.675 15.3077 17.8365 14.7885 17.8789 13.8269C17.925 12.7885 17.9366 12.4808 17.9366 9.85382C17.9366 7.22686 17.925 6.91541 17.8789 5.87695C17.8365 4.91917 17.675 4.39618 17.5404 4.05003C17.3827 3.62305 17.1327 3.23843 16.8057 2.91917C16.4904 2.59225 16.1019 2.34225 15.675 2.18465C15.3289 2.05003 14.8096 1.88852 13.8481 1.84615C12.8134 1.80003 12.502 1.78846 9.8711 1.78846C7.24429 1.78846 6.9327 1.80003 5.89423 1.84615C4.9366 1.88852 4.41346 2.05003 4.06731 2.18465C3.64033 2.34225 3.25571 2.59225 2.9366 2.91917C2.60577 3.23468 2.35577 3.62305 2.19802 4.05003C2.0634 4.39618 1.9019 4.91541 1.85968 5.87695C1.8134 6.91151 1.80199 7.22686 1.80199 9.85382C1.80199 12.4808 1.8134 12.7924 1.85968 13.8308C1.9019 14.7885 2.0634 15.3116 2.19802 15.6578C2.35577 16.0846 2.60577 16.4692 2.9327 16.7885C3.24805 17.1154 3.63657 17.3654 4.0634 17.5231C4.40956 17.6578 4.92879 17.8193 5.89033 17.8615C6.92503 17.9078 7.24039 17.9192 9.86734 17.9192C12.4943 17.9192 12.8057 17.9078 13.8442 17.8615C14.802 17.8193 15.325 17.6578 15.6711 17.5231C16.5288 17.1923 17.2096 16.5116 17.5404 15.6538Z" fill="#C59C75"/>
<path fill-rule="evenodd" clip-rule="evenodd" d="M4.80574 9.84614C4.80574 7.05378 7.07122 4.78845 9.86343 4.78845C12.6558 4.78845 14.9211 7.05378 14.9211 9.84614C14.9211 12.6385 12.6558 14.9038 9.86343 14.9038C7.07122 14.9038 4.80574 12.6385 4.80574 9.84614ZM6.58263 9.84614C6.58263 11.6577 8.05198 13.1269 9.86343 13.1269C11.675 13.1269 13.1442 11.6577 13.1442 9.84614C13.1442 8.03455 11.675 6.56535 9.86343 6.56535C8.05198 6.56535 6.58263 8.03455 6.58263 9.84614Z" fill="#C59C75"/>
<path d="M16.302 4.58845C16.302 5.2405 15.7733 5.76919 15.1211 5.76919C14.469 5.76919 13.9404 5.2405 13.9404 4.58845C13.9404 3.93626 14.469 3.40771 15.1211 3.40771C15.7733 3.40771 16.302 3.93626 16.302 4.58845Z" fill="#C59C75"/>
</svg>
