<svg width="20" height="17" viewBox="0 0 20 17" fill="none" xmlns="http://www.w3.org/2000/svg">
<path d="M19.6923 2.56078C18.96 2.88201 18.1797 3.09493 17.3662 3.19832C18.2031 2.69863 18.8418 1.9134 19.1422 0.966934C18.3618 1.43216 17.5003 1.76078 16.5822 1.94416C15.8412 1.15524 14.7852 0.666626 13.6332 0.666626C11.3982 0.666626 9.59877 2.48078 9.59877 4.70478C9.59877 5.02478 9.62585 5.33247 9.69231 5.6254C6.336 5.4617 3.36615 3.85309 1.37108 1.40263C1.02277 2.00693 0.818462 2.69863 0.818462 3.44324C0.818462 4.8414 1.53846 6.08078 2.61169 6.79832C1.96308 6.78601 1.32677 6.5977 0.787692 6.30109C0.787692 6.3134 0.787692 6.3294 0.787692 6.3454C0.787692 8.30724 2.18708 9.93678 4.02215 10.3122C3.69354 10.402 3.33538 10.4451 2.96369 10.4451C2.70523 10.4451 2.44431 10.4303 2.19938 10.3762C2.72246 11.9749 4.20677 13.1503 5.97169 13.1885C4.59815 14.2629 2.85415 14.9103 0.966154 14.9103C0.635077 14.9103 0.317538 14.8955 0 14.8549C1.78831 16.0082 3.90769 16.6666 6.19323 16.6666C13.6222 16.6666 17.6837 10.5128 17.6837 5.17863C17.6837 5.00016 17.6775 4.82786 17.6689 4.65678C18.4702 4.08816 19.1434 3.37801 19.6923 2.56078Z" fill="#C59C75"/>
</svg>
