<svg xmlns="http://www.w3.org/2000/svg" width="42" height="43" viewBox="0 0 42 43" fill="none">
  <g opacity="0.6">
    <g filter="url(#filter0_ii_2494_3089)">
      <path d="M18.6613 38.6276C18.4832 38.6689 18.2906 38.6586 18.1084 38.5883L3.22955 32.8109C2.74083 32.6228 2.49855 32.0748 2.68906 31.5868L8.51842 16.55L13.683 3.23158C13.8715 2.74359 14.4203 2.50166 14.909 2.6919L19.7526 4.57356L29.7878 8.4713C30.2765 8.65946 30.5188 9.20742 30.3304 9.69541L24.501 24.7322L19.3364 38.0507C19.2163 38.3505 18.9574 38.5593 18.6613 38.6276Z" fill="url(#paint0_linear_2494_3089)"/>
    </g>
    <g filter="url(#filter1_ii_2494_3089)">
      <path d="M26.534 14.5815C26.5305 14.5801 26.5264 14.5817 26.5252 14.5853C26.5242 14.5885 26.5209 14.5902 26.5177 14.5893C26.4821 14.5789 26.4449 14.5633 26.4095 14.5496C24.2807 13.7266 23.2225 11.3321 24.0467 9.20854C24.0594 9.17352 24.0722 9.14095 24.0878 9.10706C24.0959 9.08948 24.1164 9.08172 24.1344 9.0889L24.1811 9.10758C24.1832 9.1084 24.1857 9.10722 24.1867 9.10524C24.1877 9.10321 24.1872 9.1001 24.1851 9.09927L18.8998 7.03102C18.8285 7.00312 18.7475 7.04097 18.7185 7.11183C17.8943 9.23542 15.5025 10.2941 13.3737 9.47115C13.3117 9.45052 13.2418 9.47738 13.2182 9.53828L9.58199 18.9146L6.56257 26.7019C6.56032 26.7077 6.56241 26.7148 6.56789 26.7178C6.56852 26.7182 6.56929 26.7185 6.56998 26.7187C6.60484 26.729 6.63966 26.7433 6.67042 26.7556C8.80336 27.5786 9.85741 29.9689 9.03322 32.0966C9.01944 32.1345 9.00566 32.1694 8.9883 32.2051C8.98222 32.2176 8.96753 32.2232 8.95452 32.2183L8.91857 32.2046C8.91794 32.2044 8.91726 32.2049 8.91726 32.2055C8.91726 32.2059 8.9175 32.2063 8.91788 32.2065L14.3478 34.3327C14.3498 34.3334 14.3519 34.3331 14.3534 34.3316C14.3561 34.3289 14.3553 34.3241 14.3517 34.3227L14.3361 34.3166C14.3282 34.3136 14.324 34.3049 14.3266 34.2968C14.34 34.2548 14.3548 34.2158 14.3697 34.1768C15.1939 32.0532 17.5878 30.9945 19.7187 31.8175C19.7528 31.8326 19.7886 31.8443 19.8214 31.8604C19.8266 31.863 19.8288 31.8691 19.8266 31.8744L19.823 31.8831C19.8216 31.8863 19.8239 31.8897 19.8273 31.8902C19.8301 31.8907 19.8335 31.8896 19.8345 31.8869L23.5186 22.3864L26.5409 14.5929C26.5426 14.5886 26.54 14.5838 26.5357 14.5822C26.5351 14.582 26.5345 14.5817 26.534 14.5815Z" fill="url(#paint1_linear_2494_3089)"/>
    </g>
    <ellipse cx="16.6668" cy="20.0817" rx="5.35721" ry="5.3493" fill="white"/>
  </g>
  <path opacity="0.3" d="M18.6622 38.6322L5.83135 31.4695C5.3737 31.2152 5.21011 30.6383 5.46482 30.1834L13.3236 16.0977L19.7514 4.57617L29.7866 8.47391C30.2753 8.66207 30.5176 9.21003 30.3292 9.69802L24.4998 24.7348L19.3352 38.0533C19.2171 38.3552 18.9583 38.564 18.6622 38.6322Z" fill="#470B43"/>
  <g filter="url(#filter2_ii_2494_3089)">
    <path d="M39.0004 13.3924L26.2628 3.78147C25.8445 3.46717 25.2502 3.54988 24.9354 3.96757L16.3291 15.3754L-nan -nanL16.3291 15.3754L6.61281 28.2535C6.29805 28.6711 6.38088 29.2646 6.79918 29.5789L19.5368 39.1899C19.9551 39.5042 20.5494 39.4214 20.8642 39.0038L29.4705 27.5959L-nan -nanL29.4705 27.5959L39.1868 14.7179C39.5016 14.2981 39.4187 13.7067 39.0004 13.3924Z" fill="url(#paint2_linear_2494_3089)"/>
  </g>
  <g filter="url(#filter3_ii_2494_3089)">
    <path d="M34.1965 18.3895C34.1951 18.3882 34.1926 18.3881 34.1914 18.3897L34.1891 18.3925C34.187 18.3951 34.1833 18.3958 34.1805 18.394C34.149 18.3738 34.1175 18.3484 34.086 18.3268C32.2617 16.9559 31.8993 14.3629 33.2722 12.5453C33.2921 12.5184 33.311 12.4934 33.3316 12.4683C33.348 12.4485 33.3771 12.4458 33.3975 12.4614L33.4274 12.4842C33.4299 12.4861 33.433 12.4864 33.4348 12.484C33.4367 12.4817 33.4362 12.4779 33.4338 12.4761L28.9145 9.04775C28.8536 9.00157 28.7654 9.01698 28.7164 9.07564C27.3435 10.8932 24.7529 11.2613 22.9285 9.89034C22.8744 9.85323 22.7998 9.86011 22.7603 9.91244L16.6994 17.9422L11.6671 24.6132C11.6634 24.618 11.6635 24.6245 11.6682 24.6283C11.6692 24.6291 11.67 24.6297 11.6711 24.6304C11.7015 24.6489 11.73 24.6731 11.7564 24.6914C13.5829 26.0644 13.9432 28.6512 12.5702 30.4729C12.5498 30.5006 12.5304 30.5262 12.5091 30.5512C12.4937 30.5694 12.4668 30.5715 12.4478 30.5571L12.4302 30.5438C12.4297 30.5434 12.4294 30.5428 12.4294 30.5434C12.4294 30.5441 12.4297 30.5455 12.4302 30.5459L17.0737 34.0688C17.0753 34.07 17.0776 34.0701 17.0794 34.0691C17.0828 34.0669 17.0828 34.0617 17.0796 34.0594L17.067 34.0501C17.0606 34.0455 17.059 34.0366 17.0634 34.03C17.0877 33.9933 17.1122 33.9595 17.1385 33.924C18.5114 32.1064 21.1041 31.7404 22.9285 33.1113C22.9563 33.1336 22.9876 33.1559 23.0131 33.1796C23.0181 33.1843 23.0187 33.1919 23.0147 33.1974L23.0106 33.2031C23.0077 33.207 23.0091 33.213 23.0138 33.2142C23.0162 33.2148 23.0184 33.2136 23.0199 33.2116L29.1596 25.0739L34.1979 18.3984C34.1996 18.3962 34.1986 18.3914 34.1965 18.3895Z" fill="url(#paint3_linear_2494_3089)"/>
  </g>
  <path d="M26.0492 21.5693C26.0492 21.5202 26.0263 21.4743 25.9869 21.4383L25.2489 20.7505C25.4228 20.4655 25.5244 20.174 25.554 19.8727L26.5577 20.8127C26.597 20.852 26.6429 20.8684 26.6921 20.8684C26.7413 20.8684 26.7873 20.8455 26.8233 20.8062L27.2366 20.3673C27.2727 20.328 27.2924 20.2821 27.2924 20.233C27.2924 20.1839 27.2694 20.138 27.2301 20.102L23.6449 16.7481C23.6056 16.7088 23.5597 16.6924 23.5105 16.6924C23.4613 16.6924 23.4153 16.7153 23.3793 16.7546L22.8413 17.3278C22.8052 17.3638 22.7888 17.4097 22.7921 17.4621C22.7921 17.5145 22.8118 17.5571 22.8512 17.5931L23.4777 18.1761C24.0845 18.7427 24.3174 19.2668 24.1763 19.745L22.3952 18.0811C22.3559 18.0418 22.31 18.0254 22.2608 18.0287C22.2116 18.0287 22.1656 18.0516 22.1296 18.0909L21.7163 18.5298C21.6769 18.5691 21.6605 18.615 21.6605 18.6641C21.6638 18.7133 21.6835 18.7591 21.7228 18.7951L23.5629 20.518C23.2776 20.6948 22.9627 20.7374 22.615 20.6424C22.2673 20.5507 21.9032 20.3247 21.526 19.971L21.0438 19.519C21.0078 19.483 20.9618 19.4666 20.9094 19.4698C20.8569 19.4731 20.811 19.4895 20.7782 19.5288L20.2665 20.0758C20.2304 20.1118 20.214 20.1577 20.2173 20.2068C20.2205 21.3073 20.1681 22.7976 20.0598 24.6743C20.0533 24.7333 20.0729 24.7824 20.1189 24.8283L20.9586 25.6143C21.0176 25.67 21.0865 25.6831 21.1554 25.6536C21.2341 25.6307 21.2735 25.575 21.2767 25.4899C21.4014 23.6786 21.4637 22.2899 21.4637 21.3302C22.0049 21.7298 22.5494 21.9427 23.0972 21.9689C23.6449 21.9951 24.1435 21.8346 24.5995 21.4809L25.3243 22.1589C25.3637 22.1982 25.4096 22.2146 25.4588 22.2113C25.508 22.2113 25.554 22.1884 25.59 22.1491L26.0033 21.7102C26.0328 21.6643 26.0492 21.6185 26.0492 21.5693Z" fill="#222B45"/>
  <path d="M26.0492 21.5693C26.0492 21.5202 26.0263 21.4743 25.9869 21.4383L25.2489 20.7505C25.4228 20.4655 25.5244 20.174 25.554 19.8727L26.5577 20.8127C26.597 20.852 26.6429 20.8684 26.6921 20.8684C26.7413 20.8684 26.7873 20.8455 26.8233 20.8062L27.2366 20.3673C27.2727 20.328 27.2924 20.2821 27.2924 20.233C27.2924 20.1839 27.2694 20.138 27.2301 20.102L23.6449 16.7481C23.6056 16.7088 23.5597 16.6924 23.5105 16.6924C23.4613 16.6924 23.4153 16.7153 23.3793 16.7546L22.8413 17.3278C22.8052 17.3638 22.7888 17.4097 22.7921 17.4621C22.7921 17.5145 22.8118 17.5571 22.8512 17.5931L23.4777 18.1761C24.0845 18.7427 24.3174 19.2668 24.1763 19.745L22.3952 18.0811C22.3559 18.0418 22.31 18.0254 22.2608 18.0287C22.2116 18.0287 22.1656 18.0516 22.1296 18.0909L21.7163 18.5298C21.6769 18.5691 21.6605 18.615 21.6605 18.6641C21.6638 18.7133 21.6835 18.7591 21.7228 18.7951L23.5629 20.518C23.2776 20.6948 22.9627 20.7374 22.615 20.6424C22.2673 20.5507 21.9032 20.3247 21.526 19.971L21.0438 19.519C21.0078 19.483 20.9618 19.4666 20.9094 19.4698C20.8569 19.4731 20.811 19.4895 20.7782 19.5288L20.2665 20.0758C20.2304 20.1118 20.214 20.1577 20.2173 20.2068C20.2205 21.3073 20.1681 22.7976 20.0598 24.6743C20.0533 24.7333 20.0729 24.7824 20.1189 24.8283L20.9586 25.6143C21.0176 25.67 21.0865 25.6831 21.1554 25.6536C21.2341 25.6307 21.2735 25.575 21.2767 25.4899C21.4014 23.6786 21.4637 22.2899 21.4637 21.3302C22.0049 21.7298 22.5494 21.9427 23.0972 21.9689C23.6449 21.9951 24.1435 21.8346 24.5995 21.4809L25.3243 22.1589C25.3637 22.1982 25.4096 22.2146 25.4588 22.2113C25.508 22.2113 25.554 22.1884 25.59 22.1491L26.0033 21.7102C26.0328 21.6643 26.0492 21.6185 26.0492 21.5693Z" fill="url(#paint4_linear_2494_3089)"/>
  <defs>
    <filter id="filter0_ii_2494_3089" x="2.16264" y="2.16556" width="28.4626" height="36.7175" filterUnits="userSpaceOnUse" color-interpolation-filters="sRGB">
      <feFlood flood-opacity="0" result="BackgroundImageFix"/>
      <feBlend mode="normal" in="SourceGraphic" in2="BackgroundImageFix" result="shape"/>
      <feColorMatrix in="SourceAlpha" type="matrix" values="0 0 0 0 0 0 0 0 0 0 0 0 0 0 0 0 0 0 127 0" result="hardAlpha"/>
      <feOffset dx="0.230694" dy="0.230694"/>
      <feGaussianBlur stdDeviation="0.461388"/>
      <feComposite in2="hardAlpha" operator="arithmetic" k2="-1" k3="1"/>
      <feColorMatrix type="matrix" values="0 0 0 0 0.839216 0 0 0 0 0.505882 0 0 0 0 0.0980392 0 0 0 1 0"/>
      <feBlend mode="normal" in2="shape" result="effect1_innerShadow_2494_3089"/>
      <feColorMatrix in="SourceAlpha" type="matrix" values="0 0 0 0 0 0 0 0 0 0 0 0 0 0 0 0 0 0 127 0" result="hardAlpha"/>
      <feOffset dx="-0.461388" dy="-0.461388"/>
      <feGaussianBlur stdDeviation="0.461388"/>
      <feComposite in2="hardAlpha" operator="arithmetic" k2="-1" k3="1"/>
      <feColorMatrix type="matrix" values="0 0 0 0 1 0 0 0 0 0.909804 0 0 0 0 0.298039 0 0 0 1 0"/>
      <feBlend mode="normal" in2="effect1_innerShadow_2494_3089" result="effect2_innerShadow_2494_3089"/>
    </filter>
    <filter id="filter1_ii_2494_3089" x="6.28845" y="6.74841" width="20.5256" height="27.8577" filterUnits="userSpaceOnUse" color-interpolation-filters="sRGB">
      <feFlood flood-opacity="0" result="BackgroundImageFix"/>
      <feBlend mode="normal" in="SourceGraphic" in2="BackgroundImageFix" result="shape"/>
      <feColorMatrix in="SourceAlpha" type="matrix" values="0 0 0 0 0 0 0 0 0 0 0 0 0 0 0 0 0 0 127 0" result="hardAlpha"/>
      <feOffset dx="0.273072" dy="0.273072"/>
      <feGaussianBlur stdDeviation="1.09229"/>
      <feComposite in2="hardAlpha" operator="arithmetic" k2="-1" k3="1"/>
      <feColorMatrix type="matrix" values="0 0 0 0 0.196078 0 0 0 0 0.137255 0 0 0 0 0.054902 0 0 0 1 0"/>
      <feBlend mode="normal" in2="shape" result="effect1_innerShadow_2494_3089"/>
      <feColorMatrix in="SourceAlpha" type="matrix" values="0 0 0 0 0 0 0 0 0 0 0 0 0 0 0 0 0 0 127 0" result="hardAlpha"/>
      <feOffset dx="-0.273072" dy="-0.273072"/>
      <feGaussianBlur stdDeviation="1.09229"/>
      <feComposite in2="hardAlpha" operator="arithmetic" k2="-1" k3="1"/>
      <feColorMatrix type="matrix" values="0 0 0 0 0.247059 0 0 0 0 0.215686 0 0 0 0 0.172549 0 0 0 1 0"/>
      <feBlend mode="normal" in2="effect1_innerShadow_2494_3089" result="effect2_innerShadow_2494_3089"/>
    </filter>
    <filter id="filter2_ii_2494_3089" x="5.96049" y="3.12943" width="33.6481" height="36.4821" filterUnits="userSpaceOnUse" color-interpolation-filters="sRGB">
      <feFlood flood-opacity="0" result="BackgroundImageFix"/>
      <feBlend mode="normal" in="SourceGraphic" in2="BackgroundImageFix" result="shape"/>
      <feColorMatrix in="SourceAlpha" type="matrix" values="0 0 0 0 0 0 0 0 0 0 0 0 0 0 0 0 0 0 127 0" result="hardAlpha"/>
      <feOffset dx="0.230694" dy="0.230694"/>
      <feGaussianBlur stdDeviation="0.461388"/>
      <feComposite in2="hardAlpha" operator="arithmetic" k2="-1" k3="1"/>
      <feColorMatrix type="matrix" values="0 0 0 0 0.839216 0 0 0 0 0.505882 0 0 0 0 0.0980392 0 0 0 1 0"/>
      <feBlend mode="normal" in2="shape" result="effect1_innerShadow_2494_3089"/>
      <feColorMatrix in="SourceAlpha" type="matrix" values="0 0 0 0 0 0 0 0 0 0 0 0 0 0 0 0 0 0 127 0" result="hardAlpha"/>
      <feOffset dx="-0.461388" dy="-0.461388"/>
      <feGaussianBlur stdDeviation="0.461388"/>
      <feComposite in2="hardAlpha" operator="arithmetic" k2="-1" k3="1"/>
      <feColorMatrix type="matrix" values="0 0 0 0 1 0 0 0 0 0.909804 0 0 0 0 0.298039 0 0 0 1 0"/>
      <feBlend mode="normal" in2="effect1_innerShadow_2494_3089" result="effect2_innerShadow_2494_3089"/>
    </filter>
    <filter id="filter3_ii_2494_3089" x="11.391" y="8.74744" width="23.0813" height="25.595" filterUnits="userSpaceOnUse" color-interpolation-filters="sRGB">
      <feFlood flood-opacity="0" result="BackgroundImageFix"/>
      <feBlend mode="normal" in="SourceGraphic" in2="BackgroundImageFix" result="shape"/>
      <feColorMatrix in="SourceAlpha" type="matrix" values="0 0 0 0 0 0 0 0 0 0 0 0 0 0 0 0 0 0 127 0" result="hardAlpha"/>
      <feOffset dx="0.273072" dy="0.273072"/>
      <feGaussianBlur stdDeviation="1.09229"/>
      <feComposite in2="hardAlpha" operator="arithmetic" k2="-1" k3="1"/>
      <feColorMatrix type="matrix" values="0 0 0 0 0.196078 0 0 0 0 0.137255 0 0 0 0 0.054902 0 0 0 1 0"/>
      <feBlend mode="normal" in2="shape" result="effect1_innerShadow_2494_3089"/>
      <feColorMatrix in="SourceAlpha" type="matrix" values="0 0 0 0 0 0 0 0 0 0 0 0 0 0 0 0 0 0 127 0" result="hardAlpha"/>
      <feOffset dx="-0.273072" dy="-0.273072"/>
      <feGaussianBlur stdDeviation="1.09229"/>
      <feComposite in2="hardAlpha" operator="arithmetic" k2="-1" k3="1"/>
      <feColorMatrix type="matrix" values="0 0 0 0 0.247059 0 0 0 0 0.215686 0 0 0 0 0.172549 0 0 0 1 0"/>
      <feBlend mode="normal" in2="effect1_innerShadow_2494_3089" result="effect2_innerShadow_2494_3089"/>
    </filter>
    <linearGradient id="paint0_linear_2494_3089" x1="15.5449" y1="13.6872" x2="7.29989" y2="35.5412" gradientUnits="userSpaceOnUse">
      <stop stop-color="#FFE84C"/>
      <stop offset="1" stop-color="#FFBF00"/>
    </linearGradient>
    <linearGradient id="paint1_linear_2494_3089" x1="9.55642" y1="11.0827" x2="27.7986" y2="24.4106" gradientUnits="userSpaceOnUse">
      <stop offset="0.184112" stop-color="#3F372C"/>
      <stop offset="0.785704" stop-color="#32230E"/>
    </linearGradient>
    <linearGradient id="paint2_linear_2494_3089" x1="21.7555" y1="14.5789" x2="14.6327" y2="37.1309" gradientUnits="userSpaceOnUse">
      <stop stop-color="#FFE84C"/>
      <stop offset="1" stop-color="#FFBF00"/>
    </linearGradient>
    <linearGradient id="paint3_linear_2494_3089" x1="15.0423" y1="12.7282" x2="32.5167" y2="28.4155" gradientUnits="userSpaceOnUse">
      <stop offset="0.184112" stop-color="#3F372C"/>
      <stop offset="0.785704" stop-color="#32230E"/>
    </linearGradient>
    <linearGradient id="paint4_linear_2494_3089" x1="23.4243" y1="19.4483" x2="21.438" y2="24.9521" gradientUnits="userSpaceOnUse">
      <stop stop-color="#FFE84C"/>
      <stop offset="1" stop-color="#FFBF00"/>
    </linearGradient>
  </defs>
</svg>
