<svg xmlns="http://www.w3.org/2000/svg" width="89" height="31" viewBox="0 0 89 31" fill="none">
  <path d="M30.3159 16.0307C29.9435 15.756 29.9412 15.1829 30.3114 14.9058L38.0335 9.1261C38.0959 9.07936 38.1501 9.02171 38.1936 8.95572L43.5312 0.852164C43.7988 0.445944 44.3781 0.452249 44.6382 0.864212L50.1903 9.66C50.2468 9.74948 50.3225 9.82417 50.4114 9.87818L58.0992 14.5469C58.5152 14.7995 58.5438 15.4127 58.1532 15.705L50.5064 21.4283C50.444 21.4751 50.3898 21.5327 50.3463 21.5987L44.9958 29.7219C44.7317 30.1228 44.1619 30.123 43.8968 29.7222L39.2187 22.6488C39.1743 22.5817 39.1189 22.5233 39.0551 22.4762L30.3159 16.0307Z" fill="#1B2541"/>
  <path d="M69.6792 16.0307C69.3068 15.756 69.3045 15.1829 69.6747 14.9058L74.5397 11.2645C74.6021 11.2178 74.6563 11.1601 74.6998 11.0941L78.0492 6.0091C78.3167 5.60288 78.8961 5.60919 79.1561 6.02115L82.6471 11.5515C82.7035 11.641 82.7792 11.7157 82.8682 11.7697L87.6536 14.6759C88.0696 14.9285 88.0982 15.5416 87.7076 15.834L82.9179 19.4189C82.8555 19.4656 82.8013 19.5233 82.7578 19.5893L79.3955 24.6939C79.1314 25.0949 78.5616 25.0951 78.2966 24.6943L75.3836 20.2899C75.3393 20.2228 75.2839 20.1644 75.22 20.1173L69.6792 16.0307Z" fill="#1B2541"/>
  <path d="M0.759236 16.0307C0.386844 15.756 0.384585 15.1829 0.754802 14.9058L5.61975 11.2645C5.68221 11.2178 5.73638 11.1601 5.77984 11.0941L9.12925 6.0091C9.39682 5.60288 9.97616 5.60919 10.2362 6.02115L13.7271 11.5515C13.7836 11.641 13.8593 11.7157 13.9483 11.7697L18.7337 14.6759C19.1497 14.9285 19.1783 15.5416 18.7877 15.834L13.998 19.4189C13.9355 19.4656 13.8814 19.5233 13.8379 19.5893L10.4756 24.6939C10.2115 25.0949 9.6417 25.0951 9.37663 24.6943L6.46369 20.2899C6.41935 20.2228 6.36397 20.1644 6.30011 20.1173L0.759236 16.0307Z" fill="#1B2541"/>
</svg>
