<svg xmlns="http://www.w3.org/2000/svg" width="42" height="43" viewBox="0 0 42 43" fill="none">
  <g filter="url(#filter0_ii_2494_3173)">
    <rect x="4.03809" y="5.6543" width="33.6021" height="7.56043" rx="2.10012" fill="url(#paint0_linear_2494_3173)"/>
  </g>
  <g filter="url(#filter1_ii_2494_3173)">
    <rect x="6.1377" y="7.75391" width="29.4018" height="3.36019" rx="1.68009" fill="url(#paint1_linear_2494_3173)"/>
  </g>
  <g filter="url(#filter2_ii_2494_3173)">
    <rect x="13.2793" y="12.374" width="15.1209" height="24.7814" rx="2.10012" fill="url(#paint2_linear_2494_3173)"/>
  </g>
  <g filter="url(#filter3_d_2494_3173)">
    <rect x="11.1787" y="10.2734" width="19.3212" height="24.7814" rx="2.10012" fill="url(#paint3_linear_2494_3173)"/>
  </g>
  <g filter="url(#filter4_d_2494_3173)">
    <g filter="url(#filter5_ii_2494_3173)">
      <rect x="9.0791" y="10.2734" width="23.5214" height="22.6813" rx="2.10012" fill="url(#paint4_linear_2494_3173)"/>
    </g>
    <g filter="url(#filter6_ii_2494_3173)">
      <path fill-rule="evenodd" clip-rule="evenodd" d="M9.0991 10.2933C9.11201 10.2804 9.12958 10.2734 9.14781 10.2734H11.5522C12.0944 10.2734 12.6851 10.4688 12.8149 10.9953C12.8434 11.1107 12.8585 11.2314 12.8585 11.3556V12.5556C12.8585 13.3841 12.1868 14.0557 11.3584 14.0557H10.1583C10.0367 14.0557 9.91858 14.0413 9.80542 14.014C9.27628 13.8864 9.0791 13.2933 9.0791 12.749V10.3421C9.0791 10.3239 9.08615 10.3062 9.0991 10.2933ZM9.0791 15.5839C9.0791 15.1765 9.51109 14.895 9.91848 14.895H11.5986C12.7585 14.895 13.6987 13.9547 13.6987 12.7949V11.1148C13.6987 10.7066 13.9808 10.2734 14.389 10.2734H27.2902C27.6984 10.2734 27.9805 10.7066 27.9805 11.1148V12.7949C27.9805 13.9547 28.9207 14.895 30.0806 14.895H31.7607C32.1683 14.895 32.6005 15.1767 32.6005 15.5842V27.6463C32.6005 28.0535 32.1689 28.335 31.7617 28.335H30.0816C28.9217 28.335 27.9814 29.2752 27.9814 30.4351V32.1152C27.9814 32.5226 27.6998 32.9547 27.2924 32.9547H14.3878C13.9803 32.9547 13.6987 32.5226 13.6987 32.1152V30.4351C13.6987 29.2752 12.7585 28.335 11.5986 28.335H9.91848C9.51109 28.335 9.0791 28.0534 9.0791 27.646V15.5839ZM31.8757 14.0135C32.404 13.8852 32.6005 13.2929 32.6005 12.7493V10.3441C32.6005 10.3253 32.5933 10.3072 32.58 10.2939C32.5667 10.2806 32.5487 10.2734 32.5299 10.2734H30.1265C29.5843 10.2734 28.9937 10.4687 28.8638 10.9951C28.8353 11.1106 28.8202 11.2314 28.8202 11.3557V12.5557C28.8202 13.3842 29.4918 14.0558 30.3203 14.0558H31.5204C31.6428 14.0558 31.7618 14.0412 31.8757 14.0135ZM12.817 32.2278C12.6897 32.7573 12.0963 32.9547 11.5517 32.9547H11.1792C10.0194 32.9547 9.0791 32.0145 9.0791 30.8546V30.4824C9.0791 29.9381 9.27628 29.3451 9.80542 29.2175C9.91858 29.1902 10.0367 29.1758 10.1583 29.1758H11.3584C12.1868 29.1758 12.8585 29.8474 12.8585 30.6759V31.8759C12.8585 31.9971 12.8441 32.1149 12.817 32.2278ZM31.5215 29.1758C31.6429 29.1758 31.761 29.1902 31.874 29.2175C32.4033 29.3449 32.6005 29.9381 32.6005 30.4825V30.8546C32.6005 32.0145 31.6603 32.9547 30.5004 32.9547H30.128C29.5834 32.9547 28.99 32.7573 28.8628 32.2278C28.8357 32.1149 28.8213 31.9971 28.8213 31.8759V30.6759C28.8213 29.8474 29.4929 29.1758 30.3214 29.1758H31.5215Z" fill="url(#paint5_linear_2494_3173)"/>
    </g>
    <g filter="url(#filter7_ii_2494_3173)">
      <path d="M25.5062 17.3766C25.4464 17.3132 25.3611 17.2818 25.2668 17.2829L23.4832 17.288C23.3588 16.71 23.134 16.2108 22.8048 15.7863L25.236 15.7853C25.3344 15.7884 25.4132 15.754 25.4762 15.6944C25.5393 15.6349 25.5702 15.5498 25.5685 15.4554L25.5635 14.3891C25.5618 14.2948 25.5312 14.2118 25.4713 14.1484C25.4115 14.085 25.3262 14.0536 25.2319 14.0547L16.5523 14.0631C16.4539 14.06 16.3752 14.0944 16.3121 14.1539C16.2491 14.2134 16.2181 14.2985 16.2198 14.3929L16.2287 15.7833C16.2264 15.8734 16.2612 15.9524 16.3292 16.0161C16.3931 16.0837 16.4702 16.1148 16.5645 16.1137L18.0775 16.1083C19.5453 16.1055 20.4821 16.5001 20.8839 17.2878L16.5747 17.295C16.4764 17.2919 16.3976 17.3263 16.3386 17.39C16.2755 17.4496 16.2446 17.5347 16.2463 17.629L16.2513 18.6953C16.2487 18.7937 16.2836 18.8727 16.3434 18.9361C16.4075 18.9955 16.4886 19.0309 16.5829 19.0298L21.0395 19.0272C20.8893 19.6006 20.5377 20.0365 19.9764 20.3345C19.4192 20.6367 18.6773 20.7854 17.7631 20.7852L16.5946 20.7852C16.5045 20.7823 16.4257 20.8167 16.3624 20.8844C16.2992 20.9521 16.2603 21.0288 16.2661 21.1192L16.2767 22.444C16.2744 22.5341 16.3092 22.6132 16.3733 22.6726C17.7181 24.0888 19.4662 26.0754 21.6137 28.6283C21.6771 28.7123 21.7622 28.7519 21.8769 28.7555L23.9104 28.7542C24.0539 28.7547 24.1582 28.6883 24.2105 28.5669C24.2835 28.4421 24.2661 28.3226 24.1665 28.2088C22.1199 25.7206 20.508 23.8531 19.339 22.6147C20.5193 22.4757 21.4763 22.0918 22.2102 21.4631C22.944 20.8343 23.3874 20.0241 23.5407 19.0161L25.2955 19.0142C25.3938 19.0174 25.4726 18.9829 25.5317 18.9192C25.5947 18.8597 25.6256 18.7746 25.624 18.6802L25.6189 17.6139C25.6009 17.519 25.5661 17.44 25.5062 17.3766Z" fill="url(#paint6_linear_2494_3173)"/>
    </g>
  </g>
  <defs>
    <filter id="filter0_ii_2494_3173" x="3.52897" y="5.14518" width="34.3662" height="8.32423" filterUnits="userSpaceOnUse" color-interpolation-filters="sRGB">
      <feFlood flood-opacity="0" result="BackgroundImageFix"/>
      <feBlend mode="normal" in="SourceGraphic" in2="BackgroundImageFix" result="shape"/>
      <feColorMatrix in="SourceAlpha" type="matrix" values="0 0 0 0 0 0 0 0 0 0 0 0 0 0 0 0 0 0 127 0" result="hardAlpha"/>
      <feOffset dx="0.25456" dy="0.25456"/>
      <feGaussianBlur stdDeviation="0.509121"/>
      <feComposite in2="hardAlpha" operator="arithmetic" k2="-1" k3="1"/>
      <feColorMatrix type="matrix" values="0 0 0 0 0.839216 0 0 0 0 0.505882 0 0 0 0 0.0980392 0 0 0 1 0"/>
      <feBlend mode="normal" in2="shape" result="effect1_innerShadow_2494_3173"/>
      <feColorMatrix in="SourceAlpha" type="matrix" values="0 0 0 0 0 0 0 0 0 0 0 0 0 0 0 0 0 0 127 0" result="hardAlpha"/>
      <feOffset dx="-0.509121" dy="-0.509121"/>
      <feGaussianBlur stdDeviation="0.509121"/>
      <feComposite in2="hardAlpha" operator="arithmetic" k2="-1" k3="1"/>
      <feColorMatrix type="matrix" values="0 0 0 0 1 0 0 0 0 0.909804 0 0 0 0 0.298039 0 0 0 1 0"/>
      <feBlend mode="normal" in2="effect1_innerShadow_2494_3173" result="effect2_innerShadow_2494_3173"/>
    </filter>
    <filter id="filter1_ii_2494_3173" x="5.83637" y="7.45258" width="30.004" height="3.963" filterUnits="userSpaceOnUse" color-interpolation-filters="sRGB">
      <feFlood flood-opacity="0" result="BackgroundImageFix"/>
      <feBlend mode="normal" in="SourceGraphic" in2="BackgroundImageFix" result="shape"/>
      <feColorMatrix in="SourceAlpha" type="matrix" values="0 0 0 0 0 0 0 0 0 0 0 0 0 0 0 0 0 0 127 0" result="hardAlpha"/>
      <feOffset dx="0.301322" dy="0.301322"/>
      <feGaussianBlur stdDeviation="1.20529"/>
      <feComposite in2="hardAlpha" operator="arithmetic" k2="-1" k3="1"/>
      <feColorMatrix type="matrix" values="0 0 0 0 0.196078 0 0 0 0 0.137255 0 0 0 0 0.054902 0 0 0 1 0"/>
      <feBlend mode="normal" in2="shape" result="effect1_innerShadow_2494_3173"/>
      <feColorMatrix in="SourceAlpha" type="matrix" values="0 0 0 0 0 0 0 0 0 0 0 0 0 0 0 0 0 0 127 0" result="hardAlpha"/>
      <feOffset dx="-0.301322" dy="-0.301322"/>
      <feGaussianBlur stdDeviation="1.20529"/>
      <feComposite in2="hardAlpha" operator="arithmetic" k2="-1" k3="1"/>
      <feColorMatrix type="matrix" values="0 0 0 0 0.247059 0 0 0 0 0.215686 0 0 0 0 0.172549 0 0 0 1 0"/>
      <feBlend mode="normal" in2="effect1_innerShadow_2494_3173" result="effect2_innerShadow_2494_3173"/>
    </filter>
    <filter id="filter2_ii_2494_3173" x="12.7702" y="11.8649" width="15.8848" height="25.5449" filterUnits="userSpaceOnUse" color-interpolation-filters="sRGB">
      <feFlood flood-opacity="0" result="BackgroundImageFix"/>
      <feBlend mode="normal" in="SourceGraphic" in2="BackgroundImageFix" result="shape"/>
      <feColorMatrix in="SourceAlpha" type="matrix" values="0 0 0 0 0 0 0 0 0 0 0 0 0 0 0 0 0 0 127 0" result="hardAlpha"/>
      <feOffset dx="0.25456" dy="0.25456"/>
      <feGaussianBlur stdDeviation="0.509121"/>
      <feComposite in2="hardAlpha" operator="arithmetic" k2="-1" k3="1"/>
      <feColorMatrix type="matrix" values="0 0 0 0 0.839216 0 0 0 0 0.505882 0 0 0 0 0.0980392 0 0 0 1 0"/>
      <feBlend mode="normal" in2="shape" result="effect1_innerShadow_2494_3173"/>
      <feColorMatrix in="SourceAlpha" type="matrix" values="0 0 0 0 0 0 0 0 0 0 0 0 0 0 0 0 0 0 127 0" result="hardAlpha"/>
      <feOffset dx="-0.509121" dy="-0.509121"/>
      <feGaussianBlur stdDeviation="0.509121"/>
      <feComposite in2="hardAlpha" operator="arithmetic" k2="-1" k3="1"/>
      <feColorMatrix type="matrix" values="0 0 0 0 1 0 0 0 0 0.909804 0 0 0 0 0.298039 0 0 0 1 0"/>
      <feBlend mode="normal" in2="effect1_innerShadow_2494_3173" result="effect2_innerShadow_2494_3173"/>
    </filter>
    <filter id="filter3_d_2494_3173" x="10.3387" y="10.2734" width="21.0014" height="26.4613" filterUnits="userSpaceOnUse" color-interpolation-filters="sRGB">
      <feFlood flood-opacity="0" result="BackgroundImageFix"/>
      <feColorMatrix in="SourceAlpha" type="matrix" values="0 0 0 0 0 0 0 0 0 0 0 0 0 0 0 0 0 0 127 0" result="hardAlpha"/>
      <feOffset dy="0.840049"/>
      <feGaussianBlur stdDeviation="0.420025"/>
      <feComposite in2="hardAlpha" operator="out"/>
      <feColorMatrix type="matrix" values="0 0 0 0 0.223529 0 0 0 0 0.176471 0 0 0 0 0.113725 0 0 0 0.4 0"/>
      <feBlend mode="normal" in2="BackgroundImageFix" result="effect1_dropShadow_2494_3173"/>
      <feBlend mode="normal" in="SourceGraphic" in2="effect1_dropShadow_2494_3173" result="shape"/>
    </filter>
    <filter id="filter4_d_2494_3173" x="8.23905" y="10.2734" width="25.2016" height="24.3617" filterUnits="userSpaceOnUse" color-interpolation-filters="sRGB">
      <feFlood flood-opacity="0" result="BackgroundImageFix"/>
      <feColorMatrix in="SourceAlpha" type="matrix" values="0 0 0 0 0 0 0 0 0 0 0 0 0 0 0 0 0 0 127 0" result="hardAlpha"/>
      <feOffset dy="0.840049"/>
      <feGaussianBlur stdDeviation="0.420025"/>
      <feComposite in2="hardAlpha" operator="out"/>
      <feColorMatrix type="matrix" values="0 0 0 0 0.223529 0 0 0 0 0.176471 0 0 0 0 0.113725 0 0 0 0.4 0"/>
      <feBlend mode="normal" in2="BackgroundImageFix" result="effect1_dropShadow_2494_3173"/>
      <feBlend mode="normal" in="SourceGraphic" in2="effect1_dropShadow_2494_3173" result="shape"/>
    </filter>
    <filter id="filter5_ii_2494_3173" x="8.77778" y="9.97212" width="24.1241" height="23.2843" filterUnits="userSpaceOnUse" color-interpolation-filters="sRGB">
      <feFlood flood-opacity="0" result="BackgroundImageFix"/>
      <feBlend mode="normal" in="SourceGraphic" in2="BackgroundImageFix" result="shape"/>
      <feColorMatrix in="SourceAlpha" type="matrix" values="0 0 0 0 0 0 0 0 0 0 0 0 0 0 0 0 0 0 127 0" result="hardAlpha"/>
      <feOffset dx="0.301322" dy="0.301322"/>
      <feGaussianBlur stdDeviation="1.20529"/>
      <feComposite in2="hardAlpha" operator="arithmetic" k2="-1" k3="1"/>
      <feColorMatrix type="matrix" values="0 0 0 0 0.196078 0 0 0 0 0.137255 0 0 0 0 0.054902 0 0 0 1 0"/>
      <feBlend mode="normal" in2="shape" result="effect1_innerShadow_2494_3173"/>
      <feColorMatrix in="SourceAlpha" type="matrix" values="0 0 0 0 0 0 0 0 0 0 0 0 0 0 0 0 0 0 127 0" result="hardAlpha"/>
      <feOffset dx="-0.301322" dy="-0.301322"/>
      <feGaussianBlur stdDeviation="1.20529"/>
      <feComposite in2="hardAlpha" operator="arithmetic" k2="-1" k3="1"/>
      <feColorMatrix type="matrix" values="0 0 0 0 0.247059 0 0 0 0 0.215686 0 0 0 0 0.172549 0 0 0 1 0"/>
      <feBlend mode="normal" in2="effect1_innerShadow_2494_3173" result="effect2_innerShadow_2494_3173"/>
    </filter>
    <filter id="filter6_ii_2494_3173" x="8.56998" y="9.76432" width="24.2852" height="23.4453" filterUnits="userSpaceOnUse" color-interpolation-filters="sRGB">
      <feFlood flood-opacity="0" result="BackgroundImageFix"/>
      <feBlend mode="normal" in="SourceGraphic" in2="BackgroundImageFix" result="shape"/>
      <feColorMatrix in="SourceAlpha" type="matrix" values="0 0 0 0 0 0 0 0 0 0 0 0 0 0 0 0 0 0 127 0" result="hardAlpha"/>
      <feOffset dx="0.25456" dy="0.25456"/>
      <feGaussianBlur stdDeviation="0.509121"/>
      <feComposite in2="hardAlpha" operator="arithmetic" k2="-1" k3="1"/>
      <feColorMatrix type="matrix" values="0 0 0 0 0.839216 0 0 0 0 0.505882 0 0 0 0 0.0980392 0 0 0 1 0"/>
      <feBlend mode="normal" in2="shape" result="effect1_innerShadow_2494_3173"/>
      <feColorMatrix in="SourceAlpha" type="matrix" values="0 0 0 0 0 0 0 0 0 0 0 0 0 0 0 0 0 0 127 0" result="hardAlpha"/>
      <feOffset dx="-0.509121" dy="-0.509121"/>
      <feGaussianBlur stdDeviation="0.509121"/>
      <feComposite in2="hardAlpha" operator="arithmetic" k2="-1" k3="1"/>
      <feColorMatrix type="matrix" values="0 0 0 0 1 0 0 0 0 0.909804 0 0 0 0 0.298039 0 0 0 1 0"/>
      <feBlend mode="normal" in2="effect1_innerShadow_2494_3173" result="effect2_innerShadow_2494_3173"/>
    </filter>
    <filter id="filter7_ii_2494_3173" x="15.9184" y="13.7534" width="10.0069" height="15.3038" filterUnits="userSpaceOnUse" color-interpolation-filters="sRGB">
      <feFlood flood-opacity="0" result="BackgroundImageFix"/>
      <feBlend mode="normal" in="SourceGraphic" in2="BackgroundImageFix" result="shape"/>
      <feColorMatrix in="SourceAlpha" type="matrix" values="0 0 0 0 0 0 0 0 0 0 0 0 0 0 0 0 0 0 127 0" result="hardAlpha"/>
      <feOffset dx="0.301322" dy="0.301322"/>
      <feGaussianBlur stdDeviation="1.20529"/>
      <feComposite in2="hardAlpha" operator="arithmetic" k2="-1" k3="1"/>
      <feColorMatrix type="matrix" values="0 0 0 0 0.196078 0 0 0 0 0.137255 0 0 0 0 0.054902 0 0 0 1 0"/>
      <feBlend mode="normal" in2="shape" result="effect1_innerShadow_2494_3173"/>
      <feColorMatrix in="SourceAlpha" type="matrix" values="0 0 0 0 0 0 0 0 0 0 0 0 0 0 0 0 0 0 127 0" result="hardAlpha"/>
      <feOffset dx="-0.301322" dy="-0.301322"/>
      <feGaussianBlur stdDeviation="1.20529"/>
      <feComposite in2="hardAlpha" operator="arithmetic" k2="-1" k3="1"/>
      <feColorMatrix type="matrix" values="0 0 0 0 0.247059 0 0 0 0 0.215686 0 0 0 0 0.172549 0 0 0 1 0"/>
      <feBlend mode="normal" in2="effect1_innerShadow_2494_3173" result="effect2_innerShadow_2494_3173"/>
    </filter>
    <linearGradient id="paint0_linear_2494_3173" x1="19.6724" y1="7.97548" x2="19.331" y2="13.1924" gradientUnits="userSpaceOnUse">
      <stop stop-color="#FFE84C"/>
      <stop offset="1" stop-color="#FFBF00"/>
    </linearGradient>
    <linearGradient id="paint1_linear_2494_3173" x1="10.548" y1="8.25793" x2="11.0787" y2="12.9015" gradientUnits="userSpaceOnUse">
      <stop offset="0.184112" stop-color="#3F372C"/>
      <stop offset="0.785704" stop-color="#32230E"/>
    </linearGradient>
    <linearGradient id="paint2_linear_2494_3173" x1="20.3147" y1="19.9823" x2="13.6447" y2="33.9763" gradientUnits="userSpaceOnUse">
      <stop stop-color="#FFE84C"/>
      <stop offset="1" stop-color="#FFBF00"/>
    </linearGradient>
    <linearGradient id="paint3_linear_2494_3173" x1="20.2093" y1="19.934" x2="15.222" y2="33.1945" gradientUnits="userSpaceOnUse">
      <stop stop-color="#FFE84C"/>
      <stop offset="1" stop-color="#FFBF00"/>
    </linearGradient>
    <linearGradient id="paint4_linear_2494_3173" x1="12.6073" y1="13.6756" x2="28.4737" y2="30.1297" gradientUnits="userSpaceOnUse">
      <stop offset="0.184112" stop-color="#3F372C"/>
      <stop offset="0.785704" stop-color="#32230E"/>
    </linearGradient>
    <linearGradient id="paint5_linear_2494_3173" x1="20.0231" y1="17.237" x2="15.9366" y2="31.8087" gradientUnits="userSpaceOnUse">
      <stop stop-color="#FFE84C"/>
      <stop offset="1" stop-color="#FFBF00"/>
    </linearGradient>
    <linearGradient id="paint6_linear_2494_3173" x1="17.6304" y1="16.2598" x2="26.9731" y2="22.2365" gradientUnits="userSpaceOnUse">
      <stop offset="0.184112" stop-color="#3F372C"/>
      <stop offset="0.785704" stop-color="#32230E"/>
    </linearGradient>
  </defs>
</svg>
