<svg width="20" height="19" viewBox="0 0 20 19" fill="none" xmlns="http://www.w3.org/2000/svg">
<path fill-rule="evenodd" clip-rule="evenodd" d="M6.47128 4.35363C6.47128 3.41757 6.84313 2.51985 7.50502 1.85796C8.16691 1.19607 9.06463 0.824219 10.0007 0.824219C10.9367 0.824219 11.8345 1.19607 12.4964 1.85796C13.1583 2.51985 13.5301 3.41757 13.5301 4.35363C13.5301 5.28969 13.1583 6.18741 12.4964 6.8493C11.8345 7.51119 10.9367 7.88304 10.0007 7.88304C9.06463 7.88304 8.16691 7.51119 7.50502 6.8493C6.84313 6.18741 6.47128 5.28969 6.47128 4.35363ZM13.5301 7.17716C13.5301 6.42831 13.8276 5.71014 14.3571 5.18062C14.8866 4.65111 15.6048 4.35363 16.3536 4.35363C17.1025 4.35363 17.8207 4.65111 18.3502 5.18062C18.8797 5.71014 19.1772 6.42831 19.1772 7.17716C19.1772 7.92601 18.8797 8.64418 18.3502 9.1737C17.8207 9.70321 17.1025 10.0007 16.3536 10.0007C15.6048 10.0007 14.8866 9.70321 14.3571 9.1737C13.8276 8.64418 13.5301 7.92601 13.5301 7.17716ZM0.824219 7.17716C0.824219 6.42831 1.1217 5.71014 1.65121 5.18062C2.18073 4.65111 2.8989 4.35363 3.64775 4.35363C4.39659 4.35363 5.11477 4.65111 5.64428 5.18062C6.1738 5.71014 6.47128 6.42831 6.47128 7.17716C6.47128 7.92601 6.1738 8.64418 5.64428 9.1737C5.11477 9.70321 4.39659 10.0007 3.64775 10.0007C2.8989 10.0007 2.18073 9.70321 1.65121 9.1737C1.1217 8.64418 0.824219 7.92601 0.824219 7.17716ZM4.6454 12.2285C5.21947 11.3287 6.01112 10.5882 6.94716 10.0755C7.88319 9.5627 8.9334 9.2942 10.0007 9.29481C10.8946 9.29399 11.7787 9.48199 12.5949 9.84649C13.4112 10.211 14.1413 10.7438 14.7374 11.41C15.3335 12.0762 15.7821 12.8608 16.054 13.7124C16.3259 14.564 16.4148 15.4634 16.315 16.3517C16.3028 16.4621 16.2648 16.568 16.2039 16.6609C16.1431 16.7538 16.0612 16.831 15.9649 16.8863C14.1499 17.9278 12.0933 18.4743 10.0007 18.4713C7.83128 18.4713 5.79363 17.8953 4.03645 16.8863C3.94016 16.831 3.85827 16.7538 3.79744 16.6609C3.7366 16.568 3.69854 16.4621 3.68634 16.3517C3.52827 14.9086 3.86653 13.4546 4.6454 12.2294V12.2285Z" fill="url(#paint0_linear_995_60854)"/>
<path d="M3.48953 11.4167C2.5613 12.8496 2.12883 14.5474 2.25848 16.2497C1.69331 16.164 1.13745 16.0254 0.59824 15.8356L0.490005 15.7979C0.393436 15.7637 0.308876 15.7021 0.246568 15.6208C0.18426 15.5394 0.146877 15.4417 0.138946 15.3396L0.129534 15.2257C0.0915153 14.7532 0.149069 14.2779 0.298761 13.8281C0.448454 13.3783 0.687217 12.9633 1.0008 12.6078C1.31439 12.2523 1.69637 11.9636 2.12396 11.759C2.55155 11.5544 3.01598 11.438 3.48953 11.4167ZM17.7427 16.2497C17.8724 14.5474 17.4399 12.8496 16.5117 11.4167C16.9852 11.438 17.4496 11.5544 17.8772 11.759C18.3048 11.9636 18.6868 12.2523 19.0004 12.6078C19.314 12.9633 19.5527 13.3783 19.7024 13.8281C19.8521 14.2779 19.9097 14.7532 19.8717 15.2257L19.8622 15.3396C19.8541 15.4416 19.8167 15.539 19.7544 15.6202C19.6921 15.7014 19.6076 15.7628 19.5112 15.797L19.4029 15.8346C18.8693 16.0229 18.3149 16.1631 17.7427 16.2497Z" fill="url(#paint1_linear_995_60854)"/>
<defs>
<linearGradient id="paint0_linear_995_60854" x1="0.915771" y1="0.824219" x2="0.915771" y2="18.2952" gradientUnits="userSpaceOnUse">
<stop stop-color="#E8D3AF"/>
<stop offset="1" stop-color="#CDA777"/>
</linearGradient>
<linearGradient id="paint1_linear_995_60854" x1="0.216759" y1="11.4167" x2="0.216759" y2="16.2015" gradientUnits="userSpaceOnUse">
<stop stop-color="#E8D3AF"/>
<stop offset="1" stop-color="#CDA777"/>
</linearGradient>
</defs>
</svg>
