<svg width="32" height="32" viewBox="0 0 32 32" fill="none" xmlns="http://www.w3.org/2000/svg">
<g opacity="0.2">
<path d="M17.7679 16.0001L31.634 2.13395C32.1221 1.64577 32.1221 0.854266 31.634 0.366141C31.1458 -0.121984 30.3543 -0.122047 29.8661 0.366141L16 14.2323L2.13395 0.366141C1.64577 -0.122047 0.854266 -0.122047 0.366141 0.366141C-0.121984 0.854328 -0.122047 1.64583 0.366141 2.13395L14.2322 16L0.366141 29.8661C-0.122047 30.3543 -0.122047 31.1458 0.366141 31.634C0.610203 31.878 0.930141 32 1.25008 32C1.57002 32 1.88989 31.878 2.13402 31.634L16 17.7679L29.8661 31.634C30.1101 31.878 30.4301 32 30.75 32C31.07 32 31.3898 31.878 31.634 31.634C32.1221 31.1458 32.1221 30.3543 31.634 29.8661L17.7679 16.0001Z" fill="black"/>
</g>
</svg>
