<svg id="Layer_1" data-name="Layer 1" xmlns="http://www.w3.org/2000/svg" xmlns:xlink="http://www.w3.org/1999/xlink" viewBox="0 0 1440 660"><defs><style>.cls-1{fill:none;}.cls-2{fill:url(#linear-gradient);}.cls-3{clip-path:url(#clip-path);}.cls-4{opacity:0.8;}.cls-5{fill:url(#linear-gradient-2);}.cls-6{fill:url(#linear-gradient-3);}.cls-7{fill:url(#linear-gradient-4);}.cls-8{fill:url(#linear-gradient-5);}.cls-9{fill:url(#linear-gradient-6);}.cls-10{fill:url(#linear-gradient-7);}.cls-11{fill:url(#linear-gradient-8);}.cls-12{fill:url(#linear-gradient-9);}.cls-13{fill:url(#linear-gradient-10);}.cls-14{fill:url(#linear-gradient-11);}.cls-15{fill:url(#linear-gradient-12);}.cls-16{fill:url(#linear-gradient-13);}.cls-17{fill:url(#linear-gradient-14);}.cls-18{fill:url(#linear-gradient-15);}.cls-19{fill:url(#linear-gradient-16);}.cls-20{fill:url(#linear-gradient-17);}.cls-21{fill:url(#linear-gradient-18);}.cls-22{fill:url(#linear-gradient-19);}.cls-23{fill:url(#linear-gradient-20);}.cls-24{fill:url(#linear-gradient-21);}.cls-25{fill:url(#linear-gradient-22);}.cls-26{fill:url(#linear-gradient-23);}.cls-27{fill:url(#linear-gradient-24);}</style><linearGradient id="linear-gradient" x1="1348.27" y1="562.62" x2="-3.92" y2="1305.96" gradientTransform="translate(0 -578)" gradientUnits="userSpaceOnUse"><stop offset="0.19" stop-color="#52045d"/><stop offset="0.92" stop-color="#300447"/></linearGradient><clipPath id="clip-path"><rect class="cls-1" width="1440" height="660"/></clipPath><linearGradient id="linear-gradient-2" x1="8972.81" y1="-20955.38" x2="9928.62" y2="-20955.38" gradientTransform="matrix(0.28, -0.04, -0.04, -0.28, -1922.53, -5304.56)" gradientUnits="userSpaceOnUse"><stop offset="0.01" stop-color="#8c623e"/><stop offset="0.19" stop-color="#b28452"/><stop offset="0.47" stop-color="#eab671"/><stop offset="1" stop-color="#825937"/></linearGradient><linearGradient id="linear-gradient-3" x1="1339.69" y1="-9026.63" x2="1732.43" y2="-9335.33" gradientTransform="matrix(1, -0.05, -0.05, -1, -485.43, -8917.53)" gradientUnits="userSpaceOnUse"><stop offset="0" stop-color="#52045d"/><stop offset="1" stop-color="#300447"/></linearGradient><linearGradient id="linear-gradient-4" x1="484.44" y1="-9258.08" x2="502.41" y2="-9258.08" gradientTransform="matrix(0.96, -0.28, -0.28, -0.96, -1667.36, -8689.49)" xlink:href="#linear-gradient-2"/><linearGradient id="linear-gradient-5" x1="1251.12" y1="-9359.87" x2="1444.91" y2="-9359.87" gradientTransform="matrix(0.99, -0.13, -0.13, -0.99, -998.72, -8918.54)" xlink:href="#linear-gradient-2"/><linearGradient id="linear-gradient-6" x1="1231.61" y1="-9412.92" x2="1431.14" y2="-9412.92" gradientTransform="matrix(0.99, -0.13, -0.13, -0.99, -998.72, -8918.54)" xlink:href="#linear-gradient-2"/><linearGradient id="linear-gradient-7" x1="1225.01" y1="-9241.39" x2="1242.29" y2="-9241.39" gradientTransform="matrix(0.99, -0.13, -0.13, -0.99, -998.72, -8918.54)" xlink:href="#linear-gradient-2"/><linearGradient id="linear-gradient-8" x1="7811.93" y1="-19423.47" x2="8767.79" y2="-19423.47" gradientTransform="matrix(0.27, -0.07, -0.07, -0.27, -2276.04, -4501.4)" xlink:href="#linear-gradient-2"/><linearGradient id="linear-gradient-9" x1="973.77" y1="-8624.94" x2="1366.49" y2="-8933.62" gradientTransform="matrix(0.99, -0.17, -0.17, -0.99, -1279.5, -8260.49)" xlink:href="#linear-gradient-3"/><linearGradient id="linear-gradient-10" x1="225.9" y1="-8781.99" x2="243.87" y2="-8781.99" gradientTransform="matrix(0.92, -0.39, -0.39, -0.92, -2426.68, -7892.09)" xlink:href="#linear-gradient-2"/><linearGradient id="linear-gradient-11" x1="920.66" y1="-8930.09" x2="1114.43" y2="-8930.09" gradientTransform="matrix(0.97, -0.25, -0.25, -0.97, -1789.81, -8200.45)" xlink:href="#linear-gradient-2"/><linearGradient id="linear-gradient-12" x1="900.95" y1="-8983.26" x2="1100.32" y2="-8983.26" gradientTransform="matrix(0.97, -0.25, -0.25, -0.97, -1789.81, -8200.45)" xlink:href="#linear-gradient-2"/><linearGradient id="linear-gradient-13" x1="943.06" y1="-8949.62" x2="1078.23" y2="-8949.62" gradientTransform="matrix(0.97, -0.25, -0.25, -0.97, -1789.81, -8200.45)" xlink:href="#linear-gradient-2"/><linearGradient id="linear-gradient-14" x1="561.51" y1="-8369.75" x2="682.04" y2="-8369.75" gradientTransform="matrix(0.95, -0.32, -0.32, -0.95, -1736.89, -7452.39)" xlink:href="#linear-gradient-3"/><linearGradient id="linear-gradient-15" x1="894.73" y1="-8811.76" x2="911.05" y2="-8811.76" gradientTransform="matrix(0.97, -0.25, -0.25, -0.97, -1789.81, -8200.45)" xlink:href="#linear-gradient-2"/><linearGradient id="linear-gradient-16" x1="7384.72" y1="-20155.02" x2="8340.54" y2="-20155.02" gradientTransform="matrix(0.26, -0.11, -0.11, -0.26, -2942.51, -4153.17)" xlink:href="#linear-gradient-2"/><linearGradient id="linear-gradient-17" x1="870.35" y1="-8844.61" x2="1263.08" y2="-9153.31" gradientTransform="matrix(0.95, -0.3, -0.3, -0.95, -2463.67, -8013.38)" xlink:href="#linear-gradient-3"/><linearGradient id="linear-gradient-18" x1="74.04" y1="-8969.69" x2="92" y2="-8969.69" gradientTransform="matrix(0.86, -0.51, -0.51, -0.86, -3550.46, -7493.35)" xlink:href="#linear-gradient-2"/><linearGradient id="linear-gradient-19" x1="800.47" y1="-9139.04" x2="994.53" y2="-9139.04" gradientTransform="matrix(0.93, -0.37, -0.37, -0.93, -2960.64, -7883.87)" xlink:href="#linear-gradient-2"/><linearGradient id="linear-gradient-20" x1="780.79" y1="-9192.21" x2="980.31" y2="-9192.21" gradientTransform="matrix(0.93, -0.37, -0.37, -0.93, -2960.64, -7883.87)" xlink:href="#linear-gradient-2"/><linearGradient id="linear-gradient-21" x1="463.63" y1="-8360.26" x2="588.66" y2="-8360.26" gradientTransform="matrix(0.95, -0.32, -0.32, -0.95, -1736.89, -7452.39)" xlink:href="#linear-gradient-3"/><linearGradient id="linear-gradient-22" x1="822.87" y1="-9144.36" x2="952.19" y2="-9144.36" gradientTransform="matrix(0.93, -0.37, -0.37, -0.93, -2960.64, -7883.87)" xlink:href="#linear-gradient-2"/><linearGradient id="linear-gradient-23" x1="776.41" y1="-9020.22" x2="790.9" y2="-9020.22" gradientTransform="matrix(0.93, -0.37, -0.37, -0.93, -2960.64, -7883.87)" xlink:href="#linear-gradient-2"/><linearGradient id="linear-gradient-24" x1="984.2" y1="-2958.62" x2="998.69" y2="-2958.62" gradientTransform="translate(1635.4 3484.3) rotate(-22)" xlink:href="#linear-gradient-2"/></defs><rect class="cls-2" width="1440" height="660"/><g class="cls-3"><g class="cls-4"><path class="cls-5" d="M1453.5,443.5a19.8,19.8,0,0,1-22.3-16.9L1379.6,50.4a19.8,19.8,0,0,1,17-22.3L1625.9-3.2a19.8,19.8,0,0,1,22.3,16.9l51.6,376.2a19.9,19.9,0,0,1-17,22.3Z"/><path class="cls-6" d="M1682.5,409.9l-229.3,31.4a17.6,17.6,0,0,1-19.8-15.1L1381.9,50A17.5,17.5,0,0,1,1397,30.2L1626.3-1.2a17.6,17.6,0,0,1,19.8,15.1l51.5,376.2A17.5,17.5,0,0,1,1682.5,409.9Z"/><path class="cls-7" d="M1425.3,71.8h0l-.2-.4h-.1c-.2,0-.5-.1-1-.9a9,9,0,0,1-1.1-3h0v-.2c-.5-1.6-1-3.1-1.3-4.2h0l-2.6-8.6h0l-1.1-3.5c-.5-1.9-.9-3-1-3.4h0c-.1-.4-.5-1.6-1-3.5l-1.1-3.4c0-.1-.1-.2-.1-.4h0a5.9,5.9,0,0,1-.1-1.1V38.1h0c0-.5.3-.9.5-.9h0v-.7h0c-.1-.1-.1-.3-.2-.5h0l-.6.4-.9.2h-3.9v.2h0v.2h0c.1.2.1.4.2.6h.1a1.2,1.2,0,0,1,.5,1.1v1.5h0v.5h0c0,.5-.1,1.6-.1,3.6h0c-.1,2.1-.1,3.2-.1,3.6h0l-.4,7.2-.5,8.8-.2,4.7h0a7.8,7.8,0,0,1-.5,3.2l-.5.9h-.1v.8h0v.4h0v.3h.6l.5-.2h2.3a1.7,1.7,0,0,0,.1-.7h0v-.5h0v-.2h0s-.1,0-.2-.3l-.4-.6a2.2,2.2,0,0,1-.4-1.3v-.8h0V69h0a4.9,4.9,0,0,1,.1-1.3h0a10.9,10.9,0,0,1,.1-2h0v-.4h0v-.4a2,2,0,0,1,.1-.5h0a1,1,0,0,1,.1-.4h2.2l2-.2h3.8l.4.5a3.7,3.7,0,0,1,.2.9h0c.2.9.5,1.4.6,1.9s.6,2,.9,2.9a10.8,10.8,0,0,1,.4,1.9,1.3,1.3,0,0,1-.1,1h-.1c0,.1,0,.4.1.5h0a.6.6,0,0,0,.4.5h4.6v-.6C1425.4,72.2,1425.4,72.1,1425.3,71.8Zm-7.6-10.3h0l-1.6.2h-1.5l-3.9.4h0c-.1,0-.2,0-.2-.4V60.6a17.9,17.9,0,0,0,.1-2.1V57.2h0c0-.9.1-1.6.1-1.9h0c.1-3,.2-5.3.4-6.8h0c0-.4.1-1.5.1-3.4h0c.1-1.9.1-3,.1-3.5l.2-.6a1.1,1.1,0,0,1,.4.6,26,26,0,0,0,1.1,3.4h0a18.7,18.7,0,0,0,1,3.3c.4,1.5,1.1,3.7,2,6.6a25.2,25.2,0,0,0,1,2.9h0a24.6,24.6,0,0,0,.9,2.9v.6C1417.8,61.3,1417.8,61.5,1417.7,61.5Z"/><path class="cls-8" d="M1603.8,32.9a13.7,13.7,0,0,1,15.4,11.9l38.7,282.9,3.2-.5L1622.5,44.3a17.1,17.1,0,0,0-19.1-14.6h-.1L1430.1,53.5l.4,3.2,173.3-23.8Z"/><path class="cls-9" d="M1654.3,382.6a22.7,22.7,0,0,1-2.5.6l-176.1,24.1h-.1a13.8,13.8,0,0,1-15.5-11.9l-40.2-294-3.2.5,40.3,294a17.2,17.2,0,0,0,19.1,14.6h.1l176.1-24.2,2.6-.5Z"/><path class="cls-10" d="M1422.9,78.3c-2.6-1.5-5.6-.5-6.9,3.1-2.2-3.1-5.5-3.4-7.5-1.3s-1,6.3,2.6,8.5,6.2,6.4,6.6,7.2h0c.4-1,2.1-6,4.6-8.7S1425.4,79.8,1422.9,78.3Z"/><path class="cls-11" d="M1332.7,468.2a19.9,19.9,0,0,1-24.2-14.1L1212.6,86.7a19.8,19.8,0,0,1,14.1-24.1L1450.8,4.1a19.8,19.8,0,0,1,24.1,14.1l96,367.4a19.7,19.7,0,0,1-14.1,24.1Z"/><path class="cls-12" d="M1556.1,407.6l-224,58.5a17.6,17.6,0,0,1-21.5-12.7L1214.7,86a17.6,17.6,0,0,1,12.6-21.5L1451.3,6a17.6,17.6,0,0,1,21.5,12.7L1568.9,386A18,18,0,0,1,1556.1,407.6Z"/><path class="cls-13" d="M1260.5,102.5h0l-.2-.4h-.1c-.1.1-.6-.1-1-.8a12.4,12.4,0,0,1-1.5-2.9h0v-.2c-.6-1.6-1.3-3-1.7-4h0l-3.6-8.2h0l-1.5-3.3c-.9-1.9-1.3-3-1.5-3.4h0c-.1-.4-.7-1.5-1.5-3.4s-1.3-3-1.5-3.3-.1-.2-.1-.4h0a8.2,8.2,0,0,1-.4-1.1,4.1,4.1,0,0,1-.1-1.1h0c0-.6.2-.9.5-1h0c0-.2,0-.5-.1-.6h0a2.1,2.1,0,0,0-.4-.6h-.1l-.6.4-.9.4h-3.4a1,1,0,0,0,.4.5h.1c.3,0,.5.4.6,1s.1.8.2,1.5h0v.6h0c0,.5.1,1.6.2,3.6h0c.1,2,.2,3.2.2,3.6h0l.4,7.2.6,8.8.4,4.7h0a9.6,9.6,0,0,1-.2,3.2,1.9,1.9,0,0,1-.4.9v.2h0v.8h0v.3h0v.4h.6l.5-.2h2.2v-.6h0a1.3,1.3,0,0,0-.1-.5h0v-.2h0l-.2-.2-.5-.5a3.9,3.9,0,0,1-.5-1.3,3.1,3.1,0,0,1-.1-.9h0a2.8,2.8,0,0,0-.1-.8h0c0-.6-.1-1-.1-1.3h0a16.4,16.4,0,0,1-.1-2h0v-.4h0v-.9h0c0-.2,0-.5.1-.5h.3l.9-.2.9-.2,1.9-.5,1.6-.4h2.3s0,.1.3.4a1.9,1.9,0,0,0,.4.9h0c.4.8.6,1.4.8,1.8s1,2,1.2,2.7a13.2,13.2,0,0,1,.5,1.8,2.3,2.3,0,0,1,0,1.2h-.1v.4h0c.1.2.2.5.4.6h.1l.8-.2h0l1.3-.4,1.4-.2h1.1V103C1260.6,102.8,1260.6,102.6,1260.5,102.5Zm-8.9-9.4h0l-1.6.3-1.5.4c-1.3.4-2.6.6-3.9.9h0l-.4-.2V93.3c0-1-.1-1.6-.1-2.1V89.9h0a18.2,18.2,0,0,1-.1-2h0c-.2-3-.4-5.2-.5-6.7h0c0-.4-.1-1.5-.2-3.5h0c-.1-1.9-.2-3-.2-3.4s.1-.6.2-.6.4.1.6.6a19.4,19.4,0,0,0,1.4,3h0a26.9,26.9,0,0,0,1.4,3.2c.5,1.4,1.5,3.5,2.7,6.4l1.3,2.7h0a19.2,19.2,0,0,1,1.1,2.7V93Z"/><path class="cls-14" d="M1433.2,42.5a13.8,13.8,0,0,1,16.7,10L1522,328.6l3.1-.8L1453,51.6a17,17,0,0,0-20.7-12.2h-.1L1263.1,83.6l.9,3.1,169.2-44.2Z"/><path class="cls-15" d="M1524.7,383.7l-2.4.9-171.9,45h-.1a13.9,13.9,0,0,1-16.8-10l-74.9-287-3.1.8,74.9,287.1a17.1,17.1,0,0,0,20.7,12.2h.1l171.9-45a11.3,11.3,0,0,0,2.4-.8Z"/><path class="cls-16" d="M1419.9,196.1a32.7,32.7,0,0,0-13,6.6,33.2,33.2,0,0,0-34.2-52.8h0a33.2,33.2,0,0,0-4.8,62.7,31.4,31.4,0,0,0-14.6.3,33.2,33.2,0,1,0,41.3,31.2c4.1,20.8,6.7,38.1,4.9,42.8-5.3,13.7-19,22.6-19,22.6l27.1-6.9,3.6-1h0l3.6-.9,27.1-6.9s-16.2-1.1-27.5-10.8c-3.9-3.2-10-19.6-16.2-39.8a33.2,33.2,0,1,0,21.7-47.1Z"/><path class="cls-17" d="M1529.2,414.6l26.8-7a17.7,17.7,0,0,0,12.7-21.5l-60.1-230.2a54.9,54.9,0,0,0-6.5,103.3,56.2,56.2,0,0,0-24.1.5,54.9,54.9,0,0,0-39.7,66.7c7.5,29.2,37.4,47.1,66.6,39.6a54.9,54.9,0,0,0,41.4-54.9c6.7,34.3,11,63,8,70.6C1548.6,397.1,1536.6,408.6,1529.2,414.6Z"/><path class="cls-18" d="M1257,115.1a3.2,3.2,0,0,0-1.6.9,3.6,3.6,0,0,0,.6-3.5,4,4,0,0,0-4.8-2.9h0a4,4,0,0,0-2.9,4.9,3.6,3.6,0,0,0,2.3,2.6h-1.7a4,4,0,1,0,2,7.8,3.9,3.9,0,0,0,3-4c.4,2.5.8,4.5.5,5.1a5.8,5.8,0,0,1-2.3,2.7l3.2-.8h.9l3.2-.9a5.5,5.5,0,0,1-3.4-1.3c-.4-.3-1.1-2.4-1.9-4.8a3.9,3.9,0,0,0,4.5,2,4,4,0,0,0,3-4.8A3.7,3.7,0,0,0,1257,115.1Z"/><path class="cls-19" d="M1271.1,521.6a19.7,19.7,0,0,1-25.8-10.7L1100.6,159.8a19.8,19.8,0,0,1,10.8-25.8l214.1-88.3a19.8,19.8,0,0,1,25.8,10.8L1496,407.6a19.8,19.8,0,0,1-10.8,25.8Z"/><path class="cls-20" d="M1484.4,431.3l-214.1,88.3a17.8,17.8,0,0,1-23-9.6L1102.6,158.9a17.6,17.6,0,0,1,9.5-23l214.1-88.2a17.6,17.6,0,0,1,23,9.5l144.7,351.1A17.6,17.6,0,0,1,1484.4,431.3Z"/><path class="cls-21" d="M1144.2,161.5l-4.7-7.6h0l-1.9-3.1-1.9-3.1h0l-2-3.1a30.4,30.4,0,0,1-1.8-3.1c-.1-.1-.1-.1-.1-.3h0a6.4,6.4,0,0,0-.6-1.2,3,3,0,0,1-.2-1h0a1.6,1.6,0,0,1,.2-1h0a1.9,1.9,0,0,0-.2-.7h0a.8.8,0,0,0-.4-.4h-.1l-.5.4-.7.4c-.2.1-.4.1-.6.4h-.8l-.6.2h-1.2a1,1,0,0,0,.4.5h.1a1.3,1.3,0,0,1,.9.9c.1.2.2.9.4,1.4h0v.7h0l.9,3.5h0a29.9,29.9,0,0,1,.6,3.6h0l1.4,7,1.9,8.7.9,4.6h0a6.1,6.1,0,0,1,.2,3.2,3.7,3.7,0,0,0-.2.9v.2h0v.7h0v.2h0c0,.1.1.2.1.4h.2l.5-.2h0a.7.7,0,0,0,.5-.4h2v-.7h0c0-.1-.1-.2-.1-.4h0v-.2h0l-.2-.2-.4-.5a3.5,3.5,0,0,1-.7-1.1,4.5,4.5,0,0,1-.2-.8h0c0-.2-.1-.5-.1-.9h0a10.5,10.5,0,0,1-.2-1.3h0a8.8,8.8,0,0,1-.3-2h0v-.4h0v-.9h0v-.5h.2l1-.4.9-.4,1.9-.6,1.5-.6.8-.2.7-.2h.5a1.2,1.2,0,0,1,.4.4,9,9,0,0,1,.5.9h0a8.2,8.2,0,0,1,1,1.7,27.2,27.2,0,0,1,1.5,2.5,7.1,7.1,0,0,1,.9,1.7,1.6,1.6,0,0,1,0,1h-.4a1.1,1.1,0,0,0,.2.5h0c.1.2.2.5.4.6h.1l.9-.4h0l1.1-.4,1.3-.5h0l.6-.2h.5l-.2-.5c0-.1-.1-.1-.2-.4h0v-.2h-.3c-.2-.2-.7-.4-1.1-.8a11.1,11.1,0,0,1-1.9-2.7h-.1m-7.1-3.7h0l-1.5.6-1.5.5a28.4,28.4,0,0,1-3.8,1.3h-.4V163c-.1-.4-.1-.7-.2-1.1a11.3,11.3,0,0,0-.5-2l-.2-1.3h0c-.1-1-.3-1.6-.3-1.9h0c-.6-3-1.1-5.1-1.4-6.6h0a33.7,33.7,0,0,1-.7-3.4h0a26.5,26.5,0,0,1-.6-3.4v-.5a.6.6,0,0,1,.6.4,28.6,28.6,0,0,0,1.9,3h0a26.1,26.1,0,0,0,1.9,3l3.5,5.9a25.6,25.6,0,0,0,1.6,2.5h0l1.6,2.6.2.6C1140.4,160.8,1140.3,160.8,1140.2,160.9Z"/><path class="cls-22" d="M1313.1,86.3a13.9,13.9,0,0,1,18,7.6l108.7,263.9,3-1.1L1334,92.6a17.3,17.3,0,0,0-22.2-9.3h-.1L1150,150l1.1,3,162-66.7Z"/><path class="cls-23" d="M1450,412.1a8.2,8.2,0,0,1-2.3,1.1l-164.3,67.6h-.1a13.8,13.8,0,0,1-18-7.5l-113-274.1-2.9,1.1,113.1,274.4a17.1,17.1,0,0,0,22.2,9.2h.1l164.3-67.6,2.3-1.1Z"/><path class="cls-24" d="M1372.4,284c-14.7,34.4-50.4,114.5,20.6,126.4s69.1-63.2,69.1-63.2,11.4,28.1,13.7,52.8c2.1,21.1-20,40.7-26.3,45.8l34.8-14.4a17.6,17.6,0,0,0,9.5-23l-97.6-236.7-1-1S1393.6,234.8,1372.4,284Z"/><path class="cls-25" d="M1312.9,227.3c-27-11.3-52.2-35.9-52.2-35.9s-.9,35.1-12.5,62.1c-8.2,18.8-27.7,62.7,11.2,69.1s37.8-34.6,37.8-34.6,6.2,15.4,7.6,28.8-15.5,25.8-15.5,25.8l27.9-11.2,27.9-11.2s-20.7,2.7-29.1-7.9-14.6-26-14.6-26,27.8,30.3,51.3-1.4S1331.8,235.1,1312.9,227.3Z"/><path class="cls-26" d="M1148.9,181.4a24.8,24.8,0,0,1-5.9-4,22.6,22.6,0,0,1-1.4,7c-1,2.1-3.1,7,1.3,7.9s4.2-4,4.2-4a12.1,12.1,0,0,1,.8,3.2c.1,1.5-1.6,2.9-1.6,2.9l3.1-1.3,3-1.3s-2.3.4-3.1-.9a10.9,10.9,0,0,1-1.6-2.9s3.1,3.4,5.7-.1S1150.9,182.1,1148.9,181.4Z"/><path class="cls-27" d="M1450.6,370.5a22.1,22.1,0,0,0-1.4,7,24.8,24.8,0,0,0-5.9-4c-2.1-.9-7.1-2.9-4.5-6.4s5.7-.1,5.7-.1a15.6,15.6,0,0,0-1.6-2.9c-.9-1.2-3.2-1-3.2-1l3.1-1.3,3.1-1.3s-1.9,1.4-1.7,2.9a15.3,15.3,0,0,0,.9,3.2s-.1-4.6,4.2-3.9S1451.5,368.5,1450.6,370.5Z"/></g></g></svg>