<svg width="360" height="536" viewBox="0 0 360 536" fill="none" xmlns="http://www.w3.org/2000/svg">
<g clip-path="url(#clip0)">
<rect width="360" height="536" fill="white"/>
<rect width="360" height="536" fill="url(#paint0_linear)"/>
<path d="M340.037 99.2801L503.483 99.2801L268.5 536L143 536L340.037 99.2801Z" fill="url(#paint1_linear)"/>
<path d="M382.037 99.2801L545.483 99.2801L360 536L180 536L382.037 99.2801Z" fill="url(#paint2_linear)"/>
<path d="M251 532L318 390" stroke="url(#paint3_linear)" stroke-width="2" stroke-linecap="round"/>
<path d="M-84 350L24 118" stroke="url(#paint4_linear)" stroke-width="2" stroke-linecap="round"/>
<path d="M259 336L367 104" stroke="url(#paint5_linear)" stroke-width="2" stroke-linecap="round"/>
</g>
<defs>
<linearGradient id="paint0_linear" x1="358.952" y1="532.88" x2="358.952" y2="0" gradientUnits="userSpaceOnUse">
<stop stop-color="#0F0231"/>
<stop offset="0.503347" stop-color="#52055D"/>
<stop offset="1" stop-color="#52055D"/>
</linearGradient>
<linearGradient id="paint1_linear" x1="323.235" y1="192.462" x2="365.885" y2="514.507" gradientUnits="userSpaceOnUse">
<stop stop-color="#BD119B" stop-opacity="0.03"/>
<stop offset="1" stop-color="#190337"/>
</linearGradient>
<linearGradient id="paint2_linear" x1="361.724" y1="191.628" x2="464.439" y2="645.11" gradientUnits="userSpaceOnUse">
<stop stop-color="#BD119B" stop-opacity="0.03"/>
<stop offset="0.792842" stop-color="#190337"/>
</linearGradient>
<linearGradient id="paint3_linear" x1="318" y1="388.5" x2="271.5" y2="491" gradientUnits="userSpaceOnUse">
<stop stop-color="#FB5263"/>
<stop offset="1" stop-color="#20043B" stop-opacity="0"/>
</linearGradient>
<linearGradient id="paint4_linear" x1="24" y1="116.5" x2="-22.5" y2="219" gradientUnits="userSpaceOnUse">
<stop stop-color="#FB5263"/>
<stop offset="1" stop-color="#20043B" stop-opacity="0"/>
</linearGradient>
<linearGradient id="paint5_linear" x1="367" y1="102.5" x2="266.5" y2="324" gradientUnits="userSpaceOnUse">
<stop stop-color="#20043B" stop-opacity="0"/>
<stop offset="1" stop-color="#FB5263"/>
</linearGradient>
<clipPath id="clip0">
<rect width="360" height="536" fill="white"/>
</clipPath>
</defs>
</svg>
